<svg width="1920" height="6919" viewBox="0 0 1920 6919" fill="none" xmlns="http://www.w3.org/2000/svg">
<g clip-path="url(#clip0_2199_199)">
<g opacity="0.4">
<path d="M1518.84 3797.84C1511.31 3848.2 1532.82 3888.7 1566.04 3923.79C1599.27 3958.89 1644.13 3988.49 1683.2 4017.09C1723.15 4046.33 1765.85 4082.24 1810.99 4105.2C1856.1 4128.15 1903.54 4138.12 1952.95 4115.55C2000.93 4093.64 2018.98 4049.35 2031.23 3998.79C2034.3 3986.15 2037 3973.13 2039.72 3959.97C2042.43 3946.82 2045.17 3933.54 2048.3 3920.38C2054.56 3894.08 2062.41 3868.26 2074.89 3845.02C2088.58 3819.54 2108.42 3796.13 2130.09 3773.73C2140.93 3762.52 2152.23 3751.57 2163.46 3740.73C2174.69 3729.88 2185.85 3719.16 2196.4 3708.4C2238.63 3665.37 2270.97 3622.13 2259.64 3569.99C2247.57 3514.39 2205.64 3469.67 2151.77 3440.13C2097.91 3410.59 2032.16 3396.25 1972.57 3401.36C1921.14 3405.77 1884.51 3439.53 1850.53 3481.2C1833.53 3502.05 1817.24 3524.8 1800.08 3546.85C1782.92 3568.88 1764.92 3590.16 1744.55 3607.96C1725.02 3625.03 1702.03 3639.37 1678.33 3652.8C1654.6 3666.24 1630.21 3678.74 1607.76 3692.18C1562.87 3719.04 1526.08 3749.44 1518.84 3797.84Z" stroke="#00F0B5"/>
<path d="M1607.64 3791.5C1601.71 3831.1 1618.63 3862.96 1644.77 3890.57C1670.92 3918.2 1706.24 3941.5 1737 3964.02C1768.46 3987.05 1802.07 4015.31 1837.6 4033.38C1873.1 4051.45 1910.42 4059.28 1949.28 4041.53C1987.01 4024.3 2001.21 3989.48 2010.86 3949.67C2013.27 3939.72 2015.39 3929.47 2017.53 3919.12C2019.67 3908.76 2021.83 3898.3 2024.29 3887.94C2029.22 3867.23 2035.4 3846.89 2045.24 3828.58C2056.02 3808.5 2071.65 3790.06 2088.72 3772.42C2097.25 3763.6 2106.16 3754.97 2115 3746.44C2123.84 3737.9 2132.62 3729.45 2140.92 3720.99C2174.18 3687.1 2199.59 3653.1 2190.69 3612.11C2181.19 3568.37 2148.21 3533.19 2105.82 3509.94C2063.42 3486.69 2011.68 3475.41 1964.78 3479.42C1924.33 3482.89 1895.52 3509.44 1868.76 3542.25C1855.38 3558.66 1842.56 3576.57 1829.04 3593.93C1815.54 3611.28 1801.36 3628.04 1785.31 3642.06C1769.92 3655.51 1751.82 3666.81 1733.15 3677.38C1714.47 3687.97 1695.27 3697.8 1677.59 3708.38C1642.25 3729.53 1613.33 3753.44 1607.64 3791.5Z" stroke="#00F0B5"/>
<path d="M1671.79 3786.92C1667.03 3818.75 1680.63 3844.36 1701.65 3866.57C1722.7 3888.8 1751.1 3907.55 1775.87 3925.68C1801.2 3944.22 1828.24 3966.95 1856.83 3981.5C1885.39 3996.03 1915.39 4002.32 1946.63 3988.05C1976.95 3974.21 1988.37 3946.22 1996.13 3914.19C1998.07 3906.18 1999.79 3897.93 2001.51 3889.6C2003.23 3881.26 2004.96 3872.84 2006.95 3864.5C2010.92 3847.83 2015.89 3831.45 2023.82 3816.7C2032.5 3800.53 2045.09 3785.68 2058.83 3771.48C2065.7 3764.38 2072.86 3757.44 2079.98 3750.57C2087.1 3743.69 2094.16 3736.9 2100.84 3730.09C2127.61 3702.81 2148.03 3675.48 2140.87 3642.55C2133.24 3607.38 2106.72 3579.08 2072.61 3560.38C2038.51 3541.67 1996.88 3532.6 1959.15 3535.83C1926.64 3538.62 1903.47 3559.96 1881.94 3586.36C1871.17 3599.57 1860.86 3613.97 1849.97 3627.95C1839.1 3641.92 1827.68 3655.41 1814.76 3666.71C1802.37 3677.54 1787.79 3686.63 1772.76 3695.14C1757.72 3703.67 1742.28 3711.58 1728.05 3720.09C1699.61 3737.11 1676.37 3756.34 1671.79 3786.92Z" stroke="#00F0B5"/>
</g>
<g opacity="0.3">
<path d="M1807.86 1838.26C1807.86 1845.75 1805.05 1853.25 1799.36 1858.94L1585.17 2073.13C1573.78 2084.52 1555.26 2084.52 1543.87 2073.13C1538.32 2067.58 1535.3 2060.23 1535.3 2052.45C1535.3 2044.67 1538.32 2037.32 1543.87 2031.77L1758.06 1817.58C1763.61 1812.03 1770.89 1809 1778.75 1809C1786.53 1809 1793.88 1812.03 1799.43 1817.58C1805.05 1823.34 1807.86 1830.76 1807.86 1838.26ZM1536.74 2052.45C1536.74 2059.87 1539.62 2066.86 1544.88 2072.05C1555.69 2082.86 1573.35 2082.86 1584.16 2072.05L1798.35 1857.86C1809.16 1847.05 1809.16 1829.39 1798.35 1818.58C1793.09 1813.32 1786.1 1810.44 1778.75 1810.44C1771.32 1810.44 1764.33 1813.32 1759.14 1818.58L1544.88 2032.85C1539.62 2038.04 1536.74 2045.03 1536.74 2052.45Z" fill="#00F0B5"/>
<path d="M1742.57 1846.91C1742.57 1854.4 1739.76 1861.9 1734.06 1867.59L1519.87 2081.78C1508.49 2093.17 1489.96 2093.17 1478.58 2081.78C1473.03 2076.23 1470 2068.88 1470 2061.1C1470 2053.31 1473.03 2045.96 1478.58 2040.41L1692.77 1826.22C1698.32 1820.67 1705.6 1817.65 1713.45 1817.65C1721.23 1817.65 1728.59 1820.67 1734.13 1826.22C1739.76 1831.99 1742.57 1839.41 1742.57 1846.91ZM1471.44 2061.1C1471.44 2068.52 1474.32 2075.51 1479.59 2080.7C1490.4 2091.51 1508.05 2091.51 1518.86 2080.7L1733.05 1866.51C1743.86 1855.7 1743.86 1838.04 1733.05 1827.23C1727.79 1821.97 1720.8 1819.09 1713.45 1819.09C1706.03 1819.09 1699.04 1821.97 1693.85 1827.23L1479.59 2041.5C1474.32 2046.68 1471.44 2053.67 1471.44 2061.1Z" fill="#00F0B5"/>
</g>
<g opacity="0.3">
<path d="M227.002 4723C227.002 4730.95 224.024 4738.89 217.991 4744.92L-8.96587 4971.88C-21.0316 4983.94 -40.6574 4983.94 -52.7231 4971.88C-58.6032 4966 -61.8105 4958.21 -61.8105 4949.96C-61.8105 4941.71 -58.6032 4933.92 -52.7231 4928.04L174.234 4701.09C180.114 4695.21 187.827 4692 196.151 4692C204.398 4692 212.188 4695.21 218.068 4701.09C224.024 4707.2 227.002 4715.06 227.002 4723ZM-60.2832 4949.96C-60.2832 4957.83 -57.2286 4965.23 -51.654 4970.73C-40.1992 4982.19 -21.4898 4982.19 -10.035 4970.73L216.922 4743.78C228.377 4732.32 228.377 4713.61 216.922 4702.16C211.348 4696.58 203.94 4693.53 196.151 4693.53C188.285 4693.53 180.878 4696.58 175.38 4702.16L-51.654 4929.19C-57.2286 4934.69 -60.2832 4942.1 -60.2832 4949.96Z" fill="#00F0B5"/>
<path d="M157.813 4732.17C157.813 4740.11 154.835 4748.05 148.802 4754.09L-78.1553 4981.04C-90.221 4993.11 -109.847 4993.11 -121.913 4981.04C-127.793 4975.16 -131 4967.37 -131 4959.13C-131 4950.88 -127.793 4943.09 -121.913 4937.21L105.045 4710.25C110.925 4704.37 118.638 4701.16 126.961 4701.16C135.209 4701.16 142.998 4704.37 148.878 4710.25C154.835 4716.36 157.813 4724.23 157.813 4732.17ZM-129.473 4959.13C-129.473 4966.99 -126.418 4974.4 -120.843 4979.9C-109.389 4991.35 -90.6792 4991.35 -79.2244 4979.9L147.733 4752.94C159.188 4741.49 159.188 4722.78 147.733 4711.32C142.158 4705.75 134.751 4702.69 126.961 4702.69C119.096 4702.69 111.688 4705.75 106.19 4711.32L-120.843 4938.35C-126.418 4943.85 -129.473 4951.26 -129.473 4959.13Z" fill="#00F0B5"/>
</g>
<g opacity="0.3">
<path d="M183.822 29.0886C183.822 36.5399 181.028 43.9912 175.368 49.6513L-37.5668 262.586C-48.887 273.906 -67.3003 273.906 -78.6205 262.586C-84.1373 257.069 -87.1465 249.761 -87.1465 242.023C-87.1465 234.285 -84.1373 226.977 -78.6205 221.461L134.314 8.52597C139.831 3.00915 147.067 -2.79297e-06 154.877 -2.8861e-06C162.615 -2.97837e-06 169.923 3.00915 175.44 8.52597C181.028 14.2577 183.822 21.6373 183.822 29.0886ZM-85.7135 242.023C-85.7135 249.403 -82.8477 256.353 -77.6174 261.511C-66.8704 272.258 -49.3169 272.258 -38.5699 261.511L174.365 48.5766C185.112 37.8296 185.112 20.2761 174.365 9.52902C169.135 4.29879 162.185 1.43292 154.877 1.43292C147.497 1.43292 140.548 4.29879 135.389 9.52902L-77.6174 222.535C-82.8477 227.694 -85.7135 234.644 -85.7135 242.023Z" fill="#00F0B5"/>
<path d="M168.969 99.0115C168.969 106.463 166.175 113.914 160.514 119.574L-52.4203 332.509C-63.7405 343.829 -82.1538 343.829 -93.474 332.509C-98.9908 326.992 -102 319.684 -102 311.946C-102 304.208 -98.9908 296.9 -93.474 291.384L119.461 78.4488C124.978 72.932 132.214 69.9228 140.023 69.9228C147.761 69.9228 155.069 72.932 160.586 78.4488C166.175 84.1806 168.969 91.5602 168.969 99.0115ZM-100.567 311.946C-100.567 319.326 -97.7012 326.276 -92.471 331.434C-81.7239 342.181 -64.1704 342.181 -53.4234 331.434L159.511 118.499C170.258 107.752 170.258 90.1989 159.511 79.4519C154.281 74.2216 147.331 71.3558 140.023 71.3558C132.644 71.3558 125.694 74.2216 120.535 79.4519L-92.471 292.458C-97.7012 297.617 -100.567 304.567 -100.567 311.946Z" fill="#00F0B5"/>
</g>
<g opacity="0.4">
<path d="M382.676 1519.33C394.403 1483.99 383.971 1452.11 364.409 1422.65C344.833 1393.17 316.18 1366.2 291.564 1340.67C266.386 1314.55 240.083 1283.3 210.399 1261.09C180.737 1238.89 147.79 1225.77 109.359 1235.86C72.0535 1245.64 53.5098 1275.29 38.3331 1310.24C34.5402 1318.97 30.961 1328.03 27.3519 1337.18C23.7439 1346.33 20.106 1355.57 16.1984 1364.68C8.38376 1382.88 -0.519027 1400.54 -12.4505 1415.76C-25.5301 1432.45 -42.7897 1446.87 -61.2407 1460.32C-70.4676 1467.05 -79.9993 1473.54 -89.46 1479.96C-98.9231 1486.38 -108.315 1492.72 -117.272 1499.16C-153.142 1524.93 -181.831 1552.04 -180.194 1591C-178.446 1632.59 -153.822 1670.08 -118.667 1698.13C-83.5153 1726.18 -37.8911 1744.75 5.72654 1748.52C43.3384 1751.78 73.9627 1732.03 103.7 1706.22C118.577 1693.31 133.17 1678.94 148.327 1665.17C163.466 1651.42 179.132 1638.31 196.073 1628.01C212.318 1618.13 230.715 1610.66 249.503 1603.94C268.316 1597.2 287.473 1591.24 305.356 1584.36C341.111 1570.6 371.41 1553.29 382.676 1519.33Z" stroke="#00F0B5"/>
<path d="M317.801 1512.79C327.02 1485 318.824 1459.94 303.432 1436.76C288.026 1413.56 265.476 1392.33 246.089 1372.22C226.259 1351.65 205.559 1327.06 182.196 1309.58C158.857 1292.11 132.95 1281.8 102.734 1289.73C73.4125 1297.42 58.8301 1320.72 46.8831 1348.23C43.8977 1355.11 41.0807 1362.23 38.239 1369.44C35.3984 1376.64 32.5323 1383.93 29.4549 1391.09C23.3007 1405.43 16.2867 1419.34 6.88406 1431.34C-3.42325 1444.49 -17.0219 1455.85 -31.5518 1466.44C-38.8182 1471.74 -46.3235 1476.86 -53.7722 1481.91C-61.2231 1486.96 -68.6163 1491.95 -75.6673 1497.02C-103.911 1517.31 -126.451 1538.63 -125.164 1569.24C-123.79 1601.94 -104.425 1631.43 -76.761 1653.51C-49.1002 1675.58 -13.1978 1690.19 21.1229 1693.16C50.691 1695.73 74.7741 1680.2 98.1836 1659.89C109.897 1649.72 121.379 1638.41 133.318 1627.57C145.24 1616.74 157.579 1606.41 170.926 1598.29C183.726 1590.51 198.219 1584.62 213.014 1579.33C227.833 1574.03 242.908 1569.34 256.988 1563.92C285.136 1553.09 308.948 1539.47 317.801 1512.79Z" stroke="#00F0B5"/>
<path d="M270.93 1508.06C278.337 1485.73 271.757 1465.59 259.377 1446.95C246.984 1428.29 228.844 1411.21 213.235 1395.02C197.268 1378.46 180.618 1358.68 161.823 1344.61C143.051 1330.56 122.229 1322.29 97.9494 1328.66C74.3969 1334.83 62.6769 1353.55 53.0634 1375.68C50.6614 1381.22 48.3936 1386.95 46.1064 1392.75C43.8203 1398.55 41.5146 1404.41 39.0371 1410.18C34.0826 1421.72 28.4333 1432.93 20.8579 1442.6C12.5536 1453.19 1.59948 1462.34 -10.0976 1470.87C-15.9474 1475.13 -21.99 1479.25 -27.985 1483.32C-33.9823 1487.38 -39.931 1491.4 -45.6048 1495.48C-68.3394 1511.81 -86.4331 1528.94 -85.4003 1553.52C-84.2957 1579.8 -68.7314 1603.51 -46.4798 1621.27C-24.2312 1639.02 4.64743 1650.78 32.251 1653.17C56.0071 1655.22 75.3632 1642.76 94.2007 1626.41C103.628 1618.22 112.863 1609.13 122.477 1600.39C132.073 1591.68 142.011 1583.36 152.761 1576.82C163.072 1570.55 174.744 1565.81 186.653 1561.55C198.587 1557.28 210.712 1553.51 222.044 1549.15C244.696 1540.43 263.82 1529.49 270.93 1508.06Z" stroke="#00F0B5"/>
</g>
<path d="M1554.85 841.327C1600.19 907.032 1613.26 1011.52 1706.65 1017.57C1799.83 1023.6 1858.79 914.571 1944.13 866.537C2037.1 814.202 2199.31 817.96 2220.19 728.5C2241.5 637.259 2076.24 627.714 2015.25 561.883C1966.69 509.462 1991.32 385.149 1906.95 390.361C1817.4 395.894 1768.64 479.756 1688.32 524.624C1598.89 574.581 1504.48 567.119 1450.02 645.599C1399.42 718.518 1510.9 777.617 1554.85 841.327Z" fill="url(#paint0_linear_2199_199)"/>
<g opacity="0.4">
<path d="M33.4687 6494.1C-5.13818 6488.33 -36.1882 6504.82 -63.1035 6530.3C-90.0357 6555.79 -112.748 6590.21 -134.699 6620.2C-157.15 6650.88 -184.7 6683.64 -202.321 6718.27C-219.928 6752.88 -227.564 6789.25 -210.264 6827.13C-193.469 6863.91 -159.525 6877.74 -120.721 6887.15C-111.023 6889.5 -101.031 6891.57 -90.9351 6893.66C-80.8417 6895.75 -70.6433 6897.85 -60.5451 6900.25C-40.3497 6905.05 -20.5256 6911.08 -2.67159 6920.67C16.9007 6931.18 34.8755 6946.42 52.0728 6963.06C60.6727 6971.38 69.0843 6980.06 77.4053 6988.67C85.7281 6997.29 93.9599 7005.85 102.21 7013.95C135.245 7046.37 168.391 7071.14 208.337 7062.46C250.973 7053.2 285.268 7021.05 307.934 6979.73C330.598 6938.4 341.596 6887.96 337.678 6842.25C334.299 6802.82 308.417 6774.73 276.438 6748.65C260.44 6735.61 242.984 6723.12 226.055 6709.93C209.146 6696.77 192.804 6682.94 179.133 6667.3C166.024 6652.3 155.01 6634.65 144.702 6616.45C134.383 6598.24 124.794 6579.52 114.484 6562.29C93.8697 6527.84 70.557 6499.65 33.4687 6494.1Z" stroke="#00F0B5"/>
<path d="M38.3347 6562.26C7.98381 6557.72 -16.4314 6570.68 -37.6101 6590.72C-58.8059 6610.79 -76.6801 6637.88 -93.9677 6661.5C-111.65 6685.66 -133.332 6711.44 -147.2 6738.7C-161.056 6765.93 -167.054 6794.53 -153.451 6824.32C-140.25 6853.23 -113.57 6864.11 -83.024 6871.51C-75.3907 6873.36 -67.5258 6875 -59.5763 6876.64C-51.6296 6878.28 -43.5979 6879.93 -35.6452 6881.83C-19.741 6885.61 -4.12202 6890.36 9.94735 6897.91C25.3705 6906.2 39.5316 6918.2 53.0742 6931.31C59.8467 6937.86 66.4698 6944.69 73.0211 6951.48C79.5745 6958.26 86.0554 6965 92.5499 6971.37C118.562 6996.9 144.62 7016.36 176.009 7009.54C209.538 7002.26 236.519 6976.98 254.355 6944.45C272.19 6911.94 280.845 6872.24 277.762 6836.27C275.105 6805.27 254.757 6783.18 229.582 6762.65C216.987 6752.38 203.25 6742.55 189.916 6732.17C176.601 6721.8 163.728 6710.91 152.958 6698.59C142.629 6686.77 133.954 6672.86 125.837 6658.53C117.708 6644.19 110.163 6629.46 102.046 6615.89C85.8168 6588.77 67.4834 6566.62 38.3347 6562.26Z" stroke="#00F0B5"/>
<path d="M41.8498 6611.5C17.4637 6607.85 -2.1579 6618.26 -19.192 6634.38C-36.243 6650.53 -50.6214 6672.32 -64.5396 6691.33C-78.7772 6710.78 -96.2185 6731.52 -107.376 6753.45C-118.52 6775.36 -123.337 6798.35 -112.405 6822.28C-101.8 6845.5 -80.3682 6854.25 -55.7879 6860.21C-49.6463 6861.7 -43.3182 6863.01 -36.92 6864.33C-30.5244 6865.66 -24.0587 6866.99 -17.6563 6868.51C-4.85257 6871.56 7.72825 6875.38 19.0632 6881.47C31.4885 6888.14 42.8936 6897.81 53.7956 6908.36C59.2477 6913.63 64.5799 6919.14 69.8526 6924.6C75.1274 6930.06 80.3419 6935.48 85.5678 6940.61C106.506 6961.16 127.443 6976.78 152.649 6971.3C179.598 6965.45 201.294 6945.13 215.641 6918.97C229.986 6892.81 236.948 6860.88 234.469 6831.95C232.334 6807.04 215.985 6789.28 195.727 6772.76C185.59 6764.5 174.541 6756.59 163.803 6748.23C153.085 6739.88 142.718 6731.12 134.043 6721.19C125.724 6711.67 118.738 6700.47 112.204 6688.94C105.658 6677.38 99.5898 6665.54 93.0566 6654.62C79.9964 6632.79 65.2619 6615 41.8498 6611.5Z" stroke="#00F0B5"/>
</g>
</g>
<defs>
<linearGradient id="paint0_linear_2199_199" x1="1504.36" y1="1090.86" x2="1882.3" y2="510.965" gradientUnits="userSpaceOnUse">
<stop stop-color="#F4F5F7" stop-opacity="0"/>
<stop offset="1" stop-color="#F4F5F7"/>
</linearGradient>
<clipPath id="clip0_2199_199">
<rect width="1920" height="6919" fill="white"/>
</clipPath>
</defs>
</svg>
