<svg width="451" height="391" viewBox="0 0 451 391" fill="none" xmlns="http://www.w3.org/2000/svg">
<path d="M291.5 201C291.1 197.8 265.333 194.667 252.5 193.5C254.5 192.7 252.667 181.833 251.5 176.5C252.667 176.5 255.2 176.3 256 175.5C256.8 174.7 256.333 173.5 256 173C257.667 172.833 261.5 172.3 263.5 171.5C265.1 171.1 263.167 167.667 262 166C262.667 165.5 264.1 164.2 264.5 163C265 161.5 260 158 261 158C261.8 158 262.667 156.333 263 155.5L272 153.5C273 153.5 276.5 153.6 282.5 154C298.9 154.8 329 162.667 342 166.5C345 168 350.8 176 350 196C349.2 216 329.667 261.667 320 282L272.5 253C277.833 241 289.1 215.6 291.5 210C291.5 205 292 205 291.5 201Z" fill="white"/>
<path d="M187.002 161.5C182.602 151.5 188.835 146.667 192.502 145.5C198.002 166.5 228 174 249.5 177.5C256.5 193.5 249.5 213.5 249.5 221C249.1 229.8 197 291 171 320.5L117 288.5C145.333 260.667 202.4 203.6 204 198C206 191 192.502 174 187.002 161.5Z" fill="white"/>
<path d="M315.531 279.969L315.573 280.01C315.779 280.217 316.067 280.382 316.356 280.465C313.676 283.439 313.058 287.984 315.037 291.62L315.119 291.744C315.408 292.24 315.696 292.694 316.067 293.107C316.933 294.182 317.758 295.214 318.5 296.206C318.129 296.165 317.799 296.247 317.469 296.413C316.81 295.545 316.067 294.636 315.325 293.686C314.954 293.231 314.624 292.777 314.336 292.281L314.253 292.157C312.027 288.273 312.645 283.233 315.531 279.969Z" fill="#1E212C"/>
<path d="M264.449 260.799C268.448 258.857 272.571 257.204 277.148 255.965C277.354 256.13 277.601 256.254 277.849 256.337C278.014 256.378 278.178 256.378 278.343 256.378C278.426 256.461 278.549 256.543 278.673 256.585C278.714 256.585 278.756 256.626 278.797 256.626C273.808 257.907 269.025 259.559 264.82 261.625C263.913 262.08 263.006 262.534 262.14 263.03C262.016 262.741 261.769 262.493 261.522 262.286C262.511 261.79 263.459 261.295 264.449 260.799Z" fill="#1E212C"/>
<path d="M284.734 266.831C284.816 265.674 285.229 264.848 285.929 264.352C287.084 263.484 288.733 263.856 288.774 263.856L288.98 262.947C288.898 262.947 286.919 262.493 285.393 263.608C284.486 264.269 283.95 265.343 283.827 266.748L284.734 266.831Z" fill="#1E212C"/>
<path d="M249.398 350.292C252.532 350.25 261.149 349.424 268.653 342.937C276.404 336.203 280.856 325.543 281.805 311.165L280.856 311.083C279.908 325.171 275.579 335.666 268.034 342.194C259.871 349.3 250.388 349.383 248.533 349.342C244.533 335.377 247.007 323.643 255.789 314.429C262.386 307.488 270.302 304.72 270.384 304.678L270.096 303.77C270.013 303.811 261.891 306.662 255.129 313.768C248.862 320.337 242.513 331.906 247.749 349.92L247.832 350.251L248.161 350.292C248.203 350.292 248.615 350.292 249.398 350.292Z" fill="#1E212C"/>
<path d="M249.154 344.344L250.102 344.22C248.288 330.875 254.184 321.661 259.461 316.249C265.192 310.382 271.459 307.655 271.5 307.614L271.129 306.746C271.046 306.787 264.656 309.556 258.801 315.547C253.359 321.124 247.298 330.627 249.154 344.344Z" fill="#1E212C"/>
<path d="M252.45 346.698L253.357 346.492C250.595 334.841 255.996 324.553 256.078 324.47L255.254 324.016C255.171 324.098 249.605 334.675 252.45 346.698Z" fill="#1E212C"/>
<path d="M260.407 342.358C272.57 338.267 277.023 319.964 277.188 319.179L276.28 318.973C276.239 319.138 271.745 337.565 260.118 341.49L260.407 342.358Z" fill="#1E212C"/>
<path d="M297.637 310.504L266.014 290.301L270.59 299.638L270.714 299.721L285.268 308.976H285.392L297.637 310.504ZM268.323 292.862L293.596 309.017L285.556 308.026L271.291 298.977L268.323 292.862Z" fill="#1E212C"/>
<path d="M163.314 316.539C163.355 316.58 163.396 316.622 163.479 316.663C163.644 316.746 163.768 316.828 163.932 316.952C164.015 316.994 164.097 317.035 164.18 317.035C161.376 320.051 160.799 324.72 162.861 328.397L162.943 328.521C163.232 328.975 163.561 329.471 163.932 329.884C164.84 330.917 165.664 331.95 166.406 332.942C166.035 332.942 165.705 333.024 165.417 333.189C164.716 332.322 164.015 331.413 163.232 330.504C162.861 330.049 162.531 329.595 162.242 329.14L162.16 329.017C159.727 325.009 160.346 319.886 163.314 316.539Z" fill="#1E212C"/>
<path d="M111.735 298.441C115.734 296.417 119.857 294.682 124.475 293.359C124.846 293.649 125.217 293.896 125.547 294.227C120.764 295.549 116.188 297.243 112.147 299.309C111.24 299.763 110.333 300.259 109.467 300.755C109.302 300.466 109.096 300.218 108.849 300.011C109.797 299.433 110.787 298.937 111.735 298.441Z" fill="#1E212C"/>
<path d="M132.142 304.102C132.225 302.945 132.596 302.119 133.297 301.623C134.451 300.756 136.1 301.045 136.142 301.086L136.348 300.177C136.265 300.177 134.245 299.764 132.761 300.921C131.854 301.623 131.359 302.656 131.235 304.102H132.142Z" fill="#1E212C"/>
<path d="M97.097 388.134C100.23 388.01 108.806 387.101 116.228 380.449C123.855 373.591 128.102 362.848 128.844 348.47L127.895 348.429C127.153 362.559 123.03 373.095 115.568 379.747C107.528 386.977 98.0453 387.225 96.19 387.225C91.9845 373.343 94.2109 361.568 102.869 352.189C109.383 345.165 117.217 342.232 117.299 342.19L116.97 341.281C116.887 341.323 108.806 344.297 102.168 351.528C96.025 358.18 89.8406 369.872 95.4066 387.803L95.489 388.134H95.8189C95.8601 388.134 96.3136 388.175 97.097 388.134Z" fill="#1E212C"/>
<path d="M96.727 382.182L97.6753 382.058C95.6551 368.755 101.386 359.417 106.581 353.963C112.229 348.014 118.414 345.163 118.496 345.122L118.125 344.254C118.043 344.295 111.693 347.187 105.962 353.261C100.561 358.921 94.6656 368.507 96.727 382.182Z" fill="#1E212C"/>
<path d="M100.067 384.457L100.974 384.209C98.0057 372.599 103.242 362.229 103.324 362.146L102.5 361.691C102.458 361.857 97.0161 372.516 100.067 384.457Z" fill="#1E212C"/>
<path d="M107.942 379.995C120.022 375.698 124.187 357.312 124.352 356.527L123.445 356.32C123.403 356.527 119.239 374.995 107.654 379.086L107.942 379.995Z" fill="#1E212C"/>
<path d="M145.746 347.52L113.793 327.812L118.493 337.109L118.617 337.191L133.295 346.198H133.418L145.746 347.52ZM116.143 330.415L141.664 346.157L133.583 345.289L119.194 336.489L116.143 330.415Z" fill="#1E212C"/>
<path d="M116.062 288.152C116.928 287.408 201.654 213.658 202.273 197.049C202.52 190.645 198.521 184.819 194.274 178.663C187.471 168.789 180.421 158.584 190.729 144.949L191.471 145.528C181.576 158.625 188.42 168.541 195.016 178.126C199.346 184.406 203.427 190.356 203.18 197.09C202.561 213.658 124.803 281.789 117.134 288.441L169.784 320.213C174.732 314.718 247.048 233.986 250.429 218.327C255.624 194.364 250.511 176.845 250.47 176.639L251.377 176.35C251.418 176.474 253.315 182.96 253.645 193.372C257.768 193.826 285.144 196.801 290.916 200.148C292.565 201.098 292.524 204.321 290.793 210.312C289.473 214.815 287.206 220.806 284.072 228.119C279.248 239.316 273.724 250.306 272.61 252.496L319.612 281.458C325.879 269.683 334.949 248.695 341.381 227.912C346.658 210.725 352.018 187.629 347.524 174.904C346.122 170.937 343.772 168.252 340.598 166.93C317.179 157.22 271.291 153.584 270.837 153.543L270.92 152.593C271.373 152.634 317.427 156.27 340.969 166.021C344.432 167.467 346.947 170.317 348.431 174.573C353.049 187.505 347.648 210.849 342.329 228.16C335.815 249.273 326.538 270.551 320.272 282.285L320.024 282.739L271.786 253.033L271.415 252.785L271.621 252.413C271.703 252.289 277.888 240.142 283.248 227.706C292.895 205.312 291.535 201.511 290.504 200.933C285.02 197.752 258.098 194.777 253.727 194.322C253.892 201.057 253.397 209.279 251.418 218.492C247.873 234.854 173.453 317.569 170.279 321.081L170.031 321.37L115.609 288.524L116.062 288.152Z" fill="#1E212C"/>
<path d="M320.23 116.647C333.794 111.812 343.318 100.616 348.884 92.1046C355.522 81.8995 359.522 70.9919 360.511 64.6705C361.583 57.8533 360.676 57.0683 360.47 56.9444C360.099 56.7791 359.315 57.4815 358.862 58.0186L358.45 58.5557C355.687 68.1411 348.802 78.1397 348.761 78.2636L348.06 77.7265C348.142 77.6439 355.11 67.4387 357.749 57.8947C358.326 55.7875 358.656 54.1349 358.779 52.8541C358.903 49.838 358.244 48.8464 357.749 48.5572C357.543 48.4332 357.295 48.3506 357.007 48.3506H356.965C356.636 48.3506 356.347 48.4332 356.058 48.5158C355.151 48.8051 354.244 49.4661 353.749 49.8793C353.791 50.5403 353.749 51.284 353.585 52.1104C352.76 56.9444 349.049 64.7119 342.082 76.4044L341.339 75.9086C346.823 66.7364 353.667 54.4241 352.801 49.2595C352.43 48.0201 351.853 47.3177 351.152 47.1524C351.111 47.1524 351.07 47.1524 351.028 47.1524C349.915 47.1111 348.678 48.0201 347.936 48.6811C347.73 48.8464 347.565 49.0116 347.4 49.2182C347.359 49.2595 347.359 49.2595 347.359 49.2595C346.699 49.9206 346.163 50.5403 345.833 50.9948C344.267 57.9773 335.608 73.2643 335.237 73.9254L334.495 73.4296C334.578 73.2643 342.7 58.9689 344.761 51.7385L345.009 50.7056C345.091 50.2925 345.174 49.9206 345.215 49.5901C345.297 48.6811 345.215 47.8548 344.803 47.5656C344.473 47.359 343.401 47.1937 340.35 50.0859C338.041 52.2343 335.567 56.7791 332.681 62.0263C328.27 70.083 322.745 80.0815 314.952 87.2706C309.799 91.9806 303.532 93.3441 296.853 90.6998C296.482 90.2867 296.605 90.0801 296.647 89.8735C296.647 89.7909 296.688 89.7083 296.688 89.6256C303.078 92.1872 309.51 91.0717 314.417 86.5682C322.126 79.5031 327.569 69.5459 331.98 61.5718C334.908 56.242 337.423 51.6559 339.855 49.3835C340.597 48.6811 341.257 48.144 341.875 47.6895C342.123 47.4829 344.225 45.7063 345.504 46.574C346.122 46.9871 346.369 47.8961 346.246 49.3009C346.452 49.0943 346.658 48.8877 346.864 48.6398C346.905 48.5985 347.276 48.1853 347.854 47.7308C348.967 46.8219 350.286 46.0782 351.482 46.2848C352.142 46.3674 352.719 46.6979 353.131 47.3177C353.461 47.7308 353.667 48.2679 353.791 48.8464C354.121 48.5985 354.533 48.3093 355.028 48.0614C355.069 48.0201 355.522 47.7722 356.141 47.6069C356.182 47.6069 356.223 47.6069 356.223 47.5656C356.264 47.5656 356.306 47.5243 356.388 47.5243C356.471 47.5243 356.553 47.4829 356.594 47.4829H356.636C356.718 47.4829 356.8 47.4829 356.883 47.4416C356.924 47.4416 356.965 47.4416 357.007 47.4416C357.048 47.4416 357.089 47.4416 357.172 47.4416C357.708 47.4416 358.285 47.5656 358.738 47.9787C359.728 48.8051 360.058 50.4577 359.81 53.0193C359.769 54.0109 359.645 55.1678 359.398 56.4486V56.4899C359.893 56.1181 360.47 55.8702 361.047 56.1594C361.83 56.5312 362.696 57.812 361.583 64.8771C361.583 64.9598 361.542 65.0424 361.542 65.125C360.552 71.1159 356.883 81.8168 349.75 92.683C344.102 101.318 334.454 112.68 320.642 117.597C313.922 119.993 307.407 121.067 301.306 120.778C299.079 120.696 296.976 120.406 294.956 119.952C294.997 119.58 294.874 119.208 294.668 118.878C302.213 120.654 310.953 119.91 320.23 116.647Z" fill="#1E212C"/>
<path d="M211.797 115.119C212.292 112.599 213.075 110.161 214.271 107.93C214.271 107.93 214.394 103.633 217.775 98.4688C219.424 99.0059 221.073 99.5843 222.723 100.121C222.31 101.774 221.816 103.427 221.692 105.079C221.692 105.327 221.692 105.534 221.774 105.74C221.486 106.649 221.403 107.558 221.362 108.55C221.321 109.418 221.115 110.285 220.991 111.194C220.785 111.442 220.661 111.69 220.579 112.021C220.537 112.227 220.537 112.434 220.496 112.599C220.496 112.764 220.496 112.929 220.537 113.095C220.414 113.714 220.331 114.334 220.249 115.037C220.125 116.4 219.837 117.681 219.63 119.044C219.424 119.375 219.301 119.747 219.259 120.242C219.218 122.474 218.517 124.663 218.27 126.894C218.27 127.018 218.27 127.142 218.27 127.266C218.27 127.308 218.229 127.349 218.229 127.432C217.981 128.506 217.775 129.539 217.61 130.613C217.28 130.448 216.951 130.324 216.579 130.241C216.167 129.745 215.755 129.208 215.384 128.712C214.394 127.308 213.858 125.448 212.992 123.961C212.869 123.548 212.745 123.093 212.663 122.639C212.168 120.49 212.044 118.548 212.127 116.359C212.085 115.863 211.962 115.45 211.797 115.119Z" fill="#00F0B5"/>
<path d="M181.331 110.325C198.029 64.2989 246.308 66.9019 246.308 66.9019C249.854 76.322 255.709 68.3479 255.709 68.3479C286.466 73.182 305.102 90.8654 305.102 90.8654L296.114 120.737L281.477 116.234L275.334 153.005L262.718 155.36C262.718 155.36 262.8 153.79 258.718 151.311C254.637 148.832 237.691 142.635 237.691 142.635C237.691 142.635 218.767 133.917 215.881 128.918C214.891 127.182 215.345 120.82 216.499 113.052L212.418 113.796L181.331 110.325Z" fill="#00F0B5"/>
<path d="M183.722 110.574L184.671 110.698C182.527 120.656 184.464 131.77 190.319 143.008C197.328 156.436 209.903 164.41 219.221 168.748C230.353 173.954 241.773 176.226 248.123 176.143C255.008 176.102 255.626 174.987 255.709 174.739C255.833 174.325 255.008 173.623 254.39 173.251L253.771 172.879C243.876 171.681 232.909 166.227 232.785 166.186L233.198 165.36C233.321 165.401 244.495 170.938 254.307 172.012C256.492 172.26 258.183 172.301 259.461 172.177C262.429 171.805 263.295 170.938 263.543 170.318C263.625 170.07 263.666 169.781 263.625 169.491V169.45C263.543 169.12 263.419 168.789 263.295 168.541C262.842 167.674 262.058 166.806 261.564 166.351C260.904 166.517 260.162 166.599 259.337 166.599C254.472 166.599 246.185 164.079 233.486 158.791L233.857 157.923C243.794 162.055 257.028 167.054 261.976 165.277C263.13 164.657 263.749 163.955 263.79 163.17C263.79 163.129 263.79 163.087 263.79 163.005C263.666 161.848 262.512 160.691 261.77 160.03C261.564 159.865 261.357 159.7 261.192 159.534C261.151 159.493 261.11 159.493 261.11 159.493C260.368 158.915 259.626 158.46 259.131 158.212C251.998 157.799 235.506 151.395 234.806 151.106L235.135 150.238C235.3 150.321 250.72 156.312 258.183 157.179L259.255 157.262C259.708 157.303 260.079 157.303 260.409 157.262C261.316 157.179 262.141 156.931 262.306 156.477C262.471 156.105 262.429 154.948 259.09 152.221C256.575 150.197 251.71 148.379 246.061 146.272C237.403 143.049 226.642 139.041 218.273 132.1C212.748 127.514 210.398 121.151 211.882 113.673L213.943 104.914L214.851 105.121L212.83 113.797C211.593 120.738 213.737 127.101 218.85 131.315C227.096 138.174 237.774 142.14 246.35 145.321C252.081 147.47 257.028 149.288 259.667 151.436C260.45 152.097 261.11 152.676 261.646 153.254C261.893 153.461 263.955 155.403 263.378 156.849C263.089 157.592 262.223 158.006 260.821 158.129C261.069 158.295 261.316 158.46 261.564 158.667C261.605 158.708 262.058 159.038 262.635 159.534C263.749 160.526 264.697 161.807 264.656 163.087C264.697 163.79 264.45 164.451 263.914 165.029C263.543 165.442 263.089 165.773 262.512 166.021C262.8 166.31 263.171 166.723 263.501 167.178C263.543 167.219 263.872 167.674 264.161 168.293C264.161 168.335 264.202 168.376 264.202 168.376C264.243 168.417 264.243 168.459 264.285 168.541C264.326 168.624 264.326 168.706 264.367 168.748V168.789C264.408 168.872 264.408 168.954 264.45 169.037C264.45 169.078 264.45 169.12 264.491 169.161C264.491 169.202 264.532 169.285 264.532 169.326C264.615 169.905 264.573 170.483 264.285 171.062C263.625 172.26 262.058 172.921 259.502 173.086C258.513 173.21 257.358 173.293 256.039 173.251H255.998C256.41 173.706 256.781 174.284 256.616 174.904C256.41 175.772 255.255 176.928 248.123 177.011C248.04 177.011 247.958 177.011 247.875 177.011C241.815 177.011 230.683 175.069 218.767 169.491C209.326 165.071 196.545 156.973 189.412 143.297C185.949 136.645 183.805 129.993 183.063 123.548C182.65 119.086 182.815 114.789 183.722 110.574Z" fill="#1E212C"/>
<path d="M309.736 333.291L310.211 333.688L269.878 382.242L269.403 381.846L309.736 333.291Z" fill="#00F0B5"/>
<path d="M287.806 341.877L288.281 342.273L247.948 390.828L247.473 390.431L287.806 341.877Z" fill="#00F0B5"/>
<path d="M259.638 242.373L260.113 242.77L219.78 291.324L219.305 290.928L259.638 242.373Z" fill="#00F0B5"/>
<path d="M169.22 202.326L169.695 202.723L129.362 251.277L128.887 250.881L169.22 202.326Z" fill="#00F0B5"/>
<path d="M170.243 132.311L170.719 132.707L130.386 181.262L129.91 180.865L170.243 132.311Z" fill="#00F0B5"/>
<path d="M161.837 156.459L162.312 156.855L121.98 205.41L121.504 205.013L161.837 156.459Z" fill="#00F0B5"/>
<path d="M201.271 62.248L201.746 62.6445L161.413 111.199L160.938 110.803L201.271 62.248Z" fill="#00F0B5"/>
<path d="M92.7864 290.26L93.2617 290.656L52.9287 339.211L52.4534 338.814L92.7864 290.26Z" fill="#00F0B5"/>
<path d="M227.896 337.58L228.371 337.977L188.038 386.531L187.563 386.134L227.896 337.58Z" fill="#00F0B5"/>
<path d="M367.067 66.1573C368.758 63.8023 369.376 61.6539 368.882 59.7946C368.304 57.5636 366.325 56.6133 366.243 56.6133L365.831 57.4809C365.831 57.4809 367.521 58.2659 367.974 60.0838C368.387 61.6539 367.81 63.5131 366.325 65.6202L367.067 66.1573Z" fill="#00F0B5"/>
<path d="M370.862 66.1177C372.511 63.1016 372.923 60.3334 372.14 57.9784C371.109 54.797 368.306 53.4749 368.182 53.4336L367.77 54.3012C367.811 54.3012 370.326 55.5407 371.233 58.3089C371.934 60.4161 371.521 62.9364 369.996 65.7046L370.862 66.1177Z" fill="#00F0B5"/>
<path d="M337.878 45.17C337.878 45.17 338.084 43.3107 339.609 42.2778C340.929 41.3688 342.867 41.2862 345.382 42.0299L345.629 41.1209C342.825 40.2946 340.64 40.4186 339.073 41.4928C337.177 42.7736 336.93 44.9634 336.93 45.046L337.878 45.17L337.424 45.1286L337.878 45.17Z" fill="#00F0B5"/>
<path d="M334.211 44.3836C334.211 44.3423 334.541 41.5741 336.85 39.7975C338.622 38.4341 341.096 38.0209 344.23 38.5167L344.395 37.5664C341.014 36.988 338.293 37.4838 336.272 39.0125C333.634 41.037 333.304 44.1357 333.263 44.2597L334.211 44.3836Z" fill="#00F0B5"/>
<path d="M247.38 275.757L326.004 326.37C326.004 326.37 334.291 311.537 315.944 292.904L264.449 260.801C257.481 262.908 250.307 267.453 247.38 275.757Z" fill="#00F0B5"/>
<path d="M94.9159 313.642L174.365 362.974C174.365 362.974 182.405 348.017 163.769 329.673L111.779 298.438C104.77 300.627 97.6782 305.296 94.9159 313.642Z" fill="#00F0B5"/>
<path d="M268.913 39.8283L272.976 63.1279L245.343 75.2539L238.487 35.9346L266.119 23.8086L268.913 39.8283Z" fill="#D7DADD"/>
<path d="M268.912 39.8267C268.912 39.8267 260.999 37.9806 258.089 32.3204C258.089 32.3204 254.963 44.7146 245.279 48.1404" stroke="#1E212C" stroke-width="1.5" stroke-linecap="round" stroke-linejoin="round"/>
<path d="M254.011 50.7327C253.585 50.807 253.179 50.5218 253.104 50.0955C253.03 49.6693 253.315 49.2635 253.742 49.1892C254.168 49.1149 254.574 49.4002 254.648 49.8264C254.723 50.2527 254.437 50.6584 254.011 50.7327Z" fill="#1E212C"/>
<path d="M265.866 48.6663C265.44 48.7406 265.034 48.4553 264.96 48.0291C264.886 47.6029 265.171 47.1971 265.597 47.1228C266.024 47.0485 266.429 47.3338 266.504 47.76C266.578 48.1862 266.293 48.592 265.866 48.6663Z" fill="#1E212C"/>
<path d="M263.054 53.1037L260.98 41.2107L266.939 40.1719" stroke="#1E212C" stroke-width="1.5" stroke-linecap="round" stroke-linejoin="round"/>
<path d="M251.153 42.9241L257.112 41.8853" stroke="#1E212C" stroke-width="1.5" stroke-linecap="round" stroke-linejoin="round"/>
<path d="M243.011 50.6248L243.731 54.755C241.503 55.1434 239.382 53.6522 238.993 51.4243C238.971 51.3006 238.956 51.1772 238.946 51.0543C238.735 48.5099 242.572 48.1097 243.011 50.6248Z" fill="#EDEEEF"/>
<path d="M243.729 54.7527C241.501 55.1411 239.379 53.6499 238.991 51.422" stroke="#1E212C" stroke-width="1.5" stroke-linecap="round" stroke-linejoin="round"/>
<path d="M260.964 56.493C259.881 56.6818 258.767 56.4327 257.868 55.8005C256.969 55.1683 256.357 54.2048 256.168 53.122" stroke="#1E212C" stroke-width="1.5" stroke-linecap="round" stroke-linejoin="round"/>
<path d="M272.979 63.1289L245.347 75.2552" stroke="#1E212C" stroke-width="1.5" stroke-linecap="round" stroke-linejoin="round"/>
<path d="M263.057 53.1133L260.562 54.2081" stroke="#1E212C" stroke-width="1.5" stroke-linecap="round" stroke-linejoin="round"/>
<path d="M269.736 44.541C269.736 44.541 277.576 16.5426 253.853 23.2008C253.853 23.2008 218.12 34.8476 242.63 59.6841" stroke="#1E212C" stroke-width="1.5" stroke-linecap="round" stroke-linejoin="round"/>
<path d="M45.9186 202.512L2.48828 198.461L1.43615 209.756L44.8664 213.807L45.9186 202.512Z" fill="white"/>
<path d="M44.8442 214.14L1.40721 210.089C1.31929 210.079 1.23863 210.035 1.18214 209.967C1.12565 209.899 1.09772 209.811 1.10422 209.723L2.15635 198.428C2.16461 198.339 2.20774 198.258 2.27625 198.201C2.34475 198.144 2.43301 198.117 2.52163 198.125L45.9586 202.177C46.0472 202.185 46.1289 202.228 46.1858 202.297C46.2426 202.365 46.2699 202.454 46.2616 202.542L45.2095 213.837C45.2012 213.926 45.1581 214.008 45.0896 214.065C45.0211 214.121 44.9328 214.149 44.8442 214.14ZM1.80363 209.451L44.5723 213.441L45.5647 202.788L2.79596 198.798L1.80363 209.451Z" fill="#B3B7BC"/>
<path d="M69.89 204.747L34.4922 201.445L33.4401 212.74L68.8379 216.042L69.89 204.747Z" fill="#B3B7BC"/>
<path d="M68.8133 216.377L33.3955 213.073C33.3069 213.065 33.2252 213.021 33.1683 212.953C33.1115 212.884 33.0842 212.796 33.0925 212.707L34.1446 201.412C34.1529 201.324 34.196 201.242 34.2645 201.185C34.333 201.128 34.4213 201.101 34.5099 201.109L69.9277 204.413C70.0164 204.421 70.0981 204.465 70.1549 204.533C70.2117 204.602 70.239 204.69 70.2307 204.779L69.1786 216.074C69.1687 216.162 69.1251 216.242 69.057 216.299C68.9889 216.355 68.9016 216.383 68.8133 216.377ZM33.8053 212.437L68.5548 215.678L69.5472 205.025L34.7976 201.784L33.8053 212.437Z" fill="#B3B7BC"/>
<path d="M42.2065 190.773L7.41016 187.527L6.35803 198.822L41.1544 202.068L42.2065 190.773Z" fill="white"/>
<path d="M41.124 202.378L6.32767 199.132C6.23905 199.124 6.15735 199.081 6.10053 199.012C6.04371 198.944 6.01642 198.855 6.02468 198.767L7.07432 187.498C7.08258 187.41 7.12571 187.328 7.19422 187.271C7.26272 187.214 7.35098 187.187 7.4396 187.195L42.2359 190.441C42.3246 190.449 42.4063 190.493 42.4631 190.561C42.5199 190.63 42.5472 190.718 42.5389 190.807L41.4868 202.102C41.4708 202.184 41.425 202.258 41.3581 202.309C41.2912 202.36 41.2079 202.385 41.124 202.378ZM6.72409 198.495L40.8522 201.678L41.8395 191.079L7.71144 187.895L6.72409 198.495Z" fill="#B3B7BC"/>
<path d="M65.4692 192.943L42.207 190.773L41.1549 202.068L64.4171 204.238L65.4692 192.943Z" fill="#B3B7BC"/>
<path d="M64.3867 204.544L41.1245 202.374C41.0359 202.366 40.9542 202.323 40.8974 202.254C40.8406 202.186 40.8133 202.097 40.8216 202.009L41.8712 190.741C41.8795 190.652 41.9226 190.57 41.9911 190.513C42.0596 190.456 42.1479 190.429 42.2365 190.437L65.4986 192.607C65.5873 192.616 65.669 192.659 65.7258 192.727C65.7826 192.796 65.8099 192.884 65.8016 192.973L64.7495 204.268C64.7349 204.351 64.6895 204.426 64.6222 204.477C64.555 204.528 64.4709 204.552 64.3867 204.544ZM41.521 201.737L64.1349 203.846L65.1223 193.247L42.5083 191.137L41.521 201.737Z" fill="#B3B7BC"/>
<path d="M48.4202 199.54C49.7821 199.667 50.989 198.666 51.116 197.303C51.2429 195.94 50.2418 194.732 48.88 194.605C47.5181 194.478 46.3111 195.48 46.1842 196.843C46.0573 198.205 47.0584 199.413 48.4202 199.54Z" fill="white"/>
<path d="M41.9635 185.009L11.3438 182.152L10.8143 187.837L41.434 190.693L41.9635 185.009Z" fill="white"/>
<path d="M41.4005 191.032L10.7808 188.176C10.6922 188.168 10.6105 188.125 10.5536 188.056C10.4968 187.987 10.4695 187.899 10.4778 187.81L11.0079 182.12C11.0162 182.031 11.0593 181.949 11.1278 181.892C11.1963 181.835 11.2846 181.808 11.3732 181.816L41.9929 184.673C42.0815 184.681 42.1632 184.724 42.2201 184.793C42.2769 184.861 42.3042 184.949 42.2959 185.038L41.7658 190.729C41.7575 190.818 41.7144 190.9 41.6459 190.956C41.5774 191.013 41.4891 191.041 41.4005 191.032ZM11.1772 187.538L41.1287 190.332L41.5965 185.31L11.645 182.516L11.1772 187.538Z" fill="#B3B7BC"/>
<path d="M60.5865 186.749L31.457 184.031L30.9275 189.715L60.057 192.433L60.5865 186.749Z" fill="#B3B7BC"/>
<path d="M60.0236 192.772L30.8941 190.055C30.8055 190.047 30.7237 190.003 30.6669 189.935C30.6101 189.866 30.5828 189.778 30.5911 189.689L31.1212 183.998C31.1295 183.91 31.1726 183.828 31.2411 183.771C31.3096 183.714 31.3979 183.687 31.4865 183.695L60.616 186.413C60.7039 186.422 60.7846 186.466 60.8411 186.534C60.8975 186.602 60.9255 186.69 60.919 186.778L60.3888 192.469C60.3789 192.557 60.3354 192.638 60.2673 192.694C60.1992 192.751 60.1118 192.779 60.0236 192.772ZM31.2905 189.417L59.7517 192.072L60.2196 187.05L31.7583 184.395L31.2905 189.417Z" fill="#B3B7BC"/>
<path d="M39.2288 210.072C40.5907 210.199 41.7976 209.197 41.9246 207.834C42.0515 206.471 41.0504 205.263 39.6885 205.136C38.3267 205.009 37.1197 206.011 36.9928 207.374C36.8658 208.737 37.8669 209.945 39.2288 210.072Z" fill="white"/>
<path d="M64.3904 204.543L43.1664 202.563C43.0784 202.553 42.9978 202.51 42.9413 202.441C42.8848 202.373 42.8569 202.286 42.8634 202.198C42.8716 202.109 42.9148 202.027 42.9833 201.97C43.0518 201.913 43.14 201.886 43.2287 201.894L64.4527 203.874C64.5413 203.883 64.623 203.926 64.6798 203.994C64.7366 204.063 64.7639 204.151 64.7556 204.24C64.7474 204.329 64.7043 204.41 64.6357 204.467C64.5672 204.524 64.479 204.551 64.3904 204.543Z" fill="white"/>
<path d="M60.0234 192.771L42.1742 191.106C42.0856 191.098 42.0039 191.055 41.947 190.986C41.8902 190.918 41.8629 190.829 41.8712 190.741C41.8795 190.652 41.9226 190.57 41.9911 190.513C42.0596 190.456 42.1479 190.429 42.2365 190.437L60.0857 192.102C60.1743 192.111 60.256 192.154 60.3128 192.222C60.3697 192.291 60.397 192.379 60.3887 192.468C60.3788 192.556 60.3352 192.637 60.2671 192.693C60.199 192.75 60.1117 192.778 60.0234 192.771Z" fill="white"/>
<rect x="72.2461" y="18.6914" width="72.0385" height="52.613" transform="rotate(-14.2175 72.2461 18.6914)" fill="white"/>
<path d="M89.9874 58.4304L89.9031 58.4525C83.8107 59.836 80.6495 54.4982 80.6172 54.4434C80.5879 54.3919 80.5689 54.335 80.5615 54.2761C80.554 54.2172 80.5582 54.1573 80.5738 54.1001C80.5894 54.0428 80.6161 53.9891 80.6524 53.9422C80.6887 53.8953 80.7338 53.856 80.7852 53.8265C80.8367 53.7971 80.8934 53.7781 80.9522 53.7707C81.0109 53.7632 81.0706 53.7674 81.1277 53.7831C81.1848 53.7988 81.2383 53.8256 81.2852 53.862C81.332 53.8984 81.3712 53.9436 81.4006 53.9952C81.5167 54.1995 84.2863 58.8275 89.7423 57.592L89.7676 57.5854C92.4304 56.89 92.4479 49.2421 92.4444 42.4478C92.4154 35.4167 92.4808 28.7488 95.0524 27.3914C95.5555 27.098 96.1133 26.9112 96.6913 26.8425C97.2694 26.7738 97.8554 26.8247 98.4131 26.992C101.259 27.9001 103.311 31.9845 105.733 36.6942C107.027 39.3882 108.492 41.9956 110.121 44.5C112.647 48.19 116.051 49.9991 118.618 49.0039C121.797 47.7676 123.079 42.5237 122.024 34.9753C119.026 13.4508 125.661 9.27257 128.631 8.47882L128.74 8.45021C136.19 6.50476 141.084 9.5128 146.184 19.1542C146.211 19.2064 146.228 19.2634 146.233 19.322C146.238 19.3806 146.232 19.4397 146.214 19.4958C146.179 19.6091 146.1 19.7037 145.995 19.7586C145.89 19.8136 145.767 19.8245 145.654 19.7888C145.541 19.7532 145.447 19.674 145.392 19.5687C140.458 10.2539 135.996 7.4576 128.935 9.30181L128.834 9.32823C123.062 10.8357 120.836 20.4412 122.876 34.861C124.008 42.9488 122.566 48.406 118.92 49.8184C115.989 50.9719 112.153 49.023 109.396 44.9964C107.751 42.4718 106.268 39.8449 104.956 37.1318C102.743 32.7737 100.656 28.6621 98.1431 27.8566C97.6951 27.724 97.2246 27.6859 96.7613 27.7448C96.298 27.8037 95.852 27.9582 95.4513 28.1986C93.3315 29.3208 93.3243 36.3163 93.3171 42.4816C93.2586 50.2486 93.2822 57.57 89.9874 58.4304Z" fill="#00F0B5"/>
<path d="M154.411 52.423L85.2203 70.4932C85.1085 70.5224 84.9898 70.5059 84.8901 70.4473C84.7905 70.3887 84.7182 70.2928 84.689 70.1808L71.3013 18.7116C71.2722 18.5995 71.2886 18.4805 71.347 18.3806C71.4054 18.2807 71.501 18.2082 71.6127 18.179L140.803 0.108815C140.915 0.0819697 141.033 0.0995292 141.132 0.157785C141.231 0.216041 141.304 0.310466 141.335 0.42128L154.722 51.8905C154.752 52.0025 154.735 52.1216 154.677 52.2215C154.618 52.3213 154.523 52.3938 154.411 52.423ZM85.4218 69.5382L153.77 51.688L140.602 1.06385L72.2539 18.914L85.4218 69.5382Z" fill="#787A80"/>
<path d="M142.517 33.1678L132.852 35.692C132.74 35.7212 132.622 35.7047 132.522 35.6461C132.422 35.5875 132.35 35.4916 132.321 35.3795C132.292 35.2675 132.308 35.1484 132.367 35.0486C132.425 34.9487 132.521 34.8762 132.632 34.847L142.298 32.3227C142.409 32.2936 142.528 32.3101 142.628 32.3687C142.727 32.4273 142.8 32.5232 142.829 32.6352C142.858 32.7473 142.841 32.8663 142.783 32.9662C142.725 33.0661 142.629 33.1386 142.517 33.1678Z" fill="#D7DADD"/>
<path d="M143.556 37.1678L133.891 39.692C133.779 39.7212 133.661 39.7047 133.561 39.6461C133.461 39.5875 133.389 39.4916 133.36 39.3795C133.331 39.2675 133.347 39.1484 133.406 39.0486C133.464 38.9487 133.56 38.8762 133.671 38.847L143.337 36.3228C143.448 36.2936 143.567 36.3101 143.667 36.3687C143.766 36.4273 143.839 36.5232 143.868 36.6352C143.897 36.7473 143.881 36.8663 143.822 36.9662C143.764 37.0661 143.668 37.1386 143.556 37.1678Z" fill="#D7DADD"/>
<path d="M139.751 42.4115L134.922 43.6725C134.811 43.7017 134.692 43.6851 134.592 43.6265C134.493 43.5679 134.42 43.4721 134.391 43.36C134.362 43.2479 134.378 43.1289 134.437 43.029C134.495 42.9292 134.591 42.8566 134.703 42.8275L139.531 41.5664C139.643 41.5373 139.761 41.5538 139.861 41.6124C139.961 41.671 140.033 41.7669 140.062 41.8789C140.091 41.991 140.075 42.11 140.017 42.2099C139.958 42.3098 139.863 42.3823 139.751 42.4115Z" fill="#D7DADD"/>
<path d="M89.7791 19.5623L80.1138 22.0865C80.002 22.1157 79.8833 22.0992 79.7837 22.0406C79.684 21.982 79.6117 21.8861 79.5826 21.7741C79.5534 21.662 79.5698 21.5429 79.6283 21.4431C79.6867 21.3432 79.7822 21.2707 79.894 21.2415L89.5593 18.7173C89.671 18.6881 89.7897 18.7046 89.8894 18.7632C89.989 18.8218 90.0613 18.9177 90.0905 19.0298C90.1173 19.1417 90.0998 19.2597 90.0418 19.359C89.9837 19.4583 89.8896 19.5311 89.7791 19.5623Z" fill="#D7DADD"/>
<path d="M90.8298 23.6013L81.1646 26.1256C81.0528 26.1548 80.9341 26.1382 80.8345 26.0796C80.7348 26.021 80.6625 25.9252 80.6333 25.8131C80.6042 25.7011 80.6206 25.582 80.679 25.4821C80.7374 25.3823 80.833 25.3098 80.9448 25.2806L90.6101 22.7563C90.7217 22.7295 90.8393 22.747 90.9384 22.8053C91.0374 22.8636 91.1101 22.958 91.1413 23.0688C91.1704 23.1809 91.154 23.2999 91.0956 23.3998C91.0372 23.4997 90.9416 23.5722 90.8298 23.6013Z" fill="#D7DADD"/>
<path d="M87.0243 28.8294L82.1958 30.0904C82.0841 30.1196 81.9653 30.1031 81.8657 30.0445C81.7661 29.9859 81.6937 29.89 81.6646 29.778C81.6354 29.6659 81.6519 29.5468 81.7103 29.447C81.7687 29.3471 81.8643 29.2746 81.976 29.2454L86.8045 27.9844C86.9162 27.9552 87.035 27.9717 87.1346 28.0303C87.2342 28.0889 87.3066 28.1848 87.3357 28.2969C87.3649 28.4089 87.3484 28.528 87.29 28.6279C87.2316 28.7277 87.136 28.8002 87.0243 28.8294Z" fill="#D7DADD"/>
<rect width="12.5486" height="12.5366" transform="matrix(1 0 0 -1 372.758 377.316)" fill="#D7DADD"/>
<path d="M369.317 365.725L379.031 356.02L388.746 365.725H369.317Z" fill="#D7DADD"/>
<rect width="17.2993" height="17.2827" transform="matrix(1 0 0 -1 393.488 377.582)" fill="#B3B7BC"/>
<path d="M388.746 361.603L402.139 348.223L415.531 361.603H388.746Z" fill="#B3B7BC"/>
<rect width="22.269" height="22.2477" transform="matrix(1 0 0 -1 421.637 377.445)" fill="#00F0B5"/>
<path d="M415.532 356.876L432.772 339.652L450.012 356.876H415.532Z" fill="#00F0B5"/>
<circle cx="418" cy="113" r="10" fill="white"/>
<path d="M414.002 126.315L409.327 123.772L406.098 129.717L410.772 132.26L414.002 126.315Z" fill="#787A80"/>
<path d="M399.6 153.599C399.376 153.594 399.157 153.534 398.962 153.426L394.764 151.146C394.436 150.965 394.193 150.662 394.086 150.303C393.98 149.944 394.018 149.557 394.194 149.226L404.579 130.117C404.76 129.789 405.062 129.546 405.421 129.439C405.78 129.332 406.167 129.371 406.497 129.547L410.69 131.826C411.018 132.007 411.261 132.31 411.368 132.669C411.474 133.028 411.436 133.415 411.26 133.746L400.885 152.856C400.76 153.086 400.573 153.277 400.347 153.408C400.12 153.539 399.862 153.605 399.6 153.599ZM405.852 129.84C405.753 129.836 405.655 129.85 405.56 129.88C405.441 129.916 405.329 129.975 405.233 130.055C405.136 130.134 405.056 130.232 404.996 130.342L394.612 149.446C394.495 149.667 394.469 149.926 394.54 150.165C394.612 150.405 394.774 150.607 394.994 150.728L399.187 153.007C399.407 153.125 399.664 153.152 399.904 153.081C400.144 153.011 400.346 152.849 400.467 152.63L410.851 133.536C410.969 133.315 410.995 133.056 410.923 132.816C410.852 132.577 410.689 132.374 410.47 132.254L406.277 129.974C406.149 129.895 406.003 129.848 405.852 129.84Z" fill="#787A80"/>
<path d="M417.375 127.131C413.862 127.051 410.509 125.648 407.985 123.202C405.46 120.756 403.951 117.447 403.757 113.937C403.564 110.426 404.7 106.971 406.94 104.262C409.18 101.553 412.359 99.7896 415.841 99.3229C419.324 98.8561 422.854 99.7209 425.727 101.745C428.6 103.768 430.605 106.802 431.342 110.24C432.078 113.678 431.492 117.267 429.7 120.291C427.907 123.316 425.041 125.552 421.674 126.555C420.28 126.972 418.829 127.167 417.375 127.131ZM418.101 99.7672C416.693 99.733 415.287 99.9189 413.936 100.318C410.71 101.278 407.965 103.42 406.247 106.316C404.529 109.212 403.965 112.65 404.667 115.944C405.37 119.237 407.287 122.145 410.037 124.087C412.787 126.029 416.167 126.862 419.503 126.421C422.84 125.979 425.887 124.296 428.038 121.705C430.189 119.115 431.286 115.809 431.109 112.446C430.932 109.082 429.495 105.91 427.084 103.56C424.673 101.21 421.465 99.8556 418.101 99.7672ZM417.459 123.627C415.818 123.585 414.211 123.154 412.769 122.369C410.524 121.15 408.804 119.15 407.935 116.747C407.066 114.344 407.109 111.706 408.055 109.332C409.001 106.958 410.784 105.014 413.067 103.869C415.35 102.724 417.973 102.457 420.44 103.119C422.907 103.78 425.045 105.325 426.449 107.459C427.853 109.594 428.426 112.17 428.058 114.699C427.691 117.227 426.408 119.533 424.455 121.179C422.501 122.825 420.012 123.696 417.459 123.627ZM413.003 121.951C414.729 122.888 416.694 123.293 418.65 123.114C420.606 122.935 422.464 122.18 423.992 120.946C425.52 119.711 426.648 118.051 427.233 116.175C427.819 114.299 427.837 112.292 427.284 110.406C426.726 108.52 425.622 106.842 424.112 105.583C422.601 104.325 420.752 103.543 418.797 103.336C416.843 103.129 414.871 103.506 413.13 104.42C411.39 105.335 409.96 106.745 409.02 108.472C407.767 110.789 407.483 113.509 408.23 116.035C408.976 118.561 410.693 120.688 413.003 121.951Z" fill="#787A80"/>
</svg>
