<svg width="286" height="489" viewBox="0 0 286 489" fill="none" xmlns="http://www.w3.org/2000/svg">
<path d="M5.8823 78.2709H76.498L70.7149 65.2871H0.0991211L5.8823 78.2709Z" fill="#B3B7BC"/>
<path d="M214.484 105.457H285.1L279.316 92.4727H208.701L214.484 105.457Z" fill="#B3B7BC"/>
<path d="M149.397 146.314L181.867 178.628C181.867 178.628 239.342 367.778 230.211 460.893L243.576 473.13L177.834 488.749L134.587 263.165L149.397 146.314Z" fill="#00F0B5"/>
<path d="M169.338 383.871C169.355 397.484 168.097 411.069 165.579 424.447L136.733 273.979C156.755 301.079 169.338 340.273 169.338 383.871Z" fill="#1E212C"/>
<path d="M166.213 177.135L81.9738 172.253V263.558V488.75H148.178L141.178 476.209L166.213 177.135Z" fill="#00F0B5"/>
<path d="M169.264 27.465V38.7136C169.264 47.4115 163.324 54.9856 154.876 57.0616L136.972 61.4612V17.4813L151.859 13.8231C156.051 12.793 160.485 13.7467 163.882 16.4096C167.279 19.0725 169.264 23.1489 169.264 27.465V27.465Z" fill="#E5E8ED"/>
<path d="M169.264 38.7139C169.264 47.4117 163.324 54.9858 154.876 57.0618L136.972 61.4614" stroke="#1E212C" stroke-width="1.5" stroke-linecap="round" stroke-linejoin="round"/>
<path d="M151.021 36.4823C150.545 36.4823 150.158 36.0958 150.158 35.6191C150.158 35.1423 150.545 34.7559 151.021 34.7559C151.498 34.7559 151.885 35.1423 151.885 35.6191C151.885 36.0958 151.498 36.4823 151.021 36.4823Z" fill="#1E212C"/>
<path d="M164.283 36.4823C163.806 36.4823 163.42 36.0958 163.42 35.6191C163.42 35.1423 163.806 34.7559 164.283 34.7559C164.76 34.7559 165.146 35.1423 165.146 35.6191C165.146 36.0958 164.76 36.4823 164.283 36.4823Z" fill="#1E212C"/>
<path d="M160.395 40.7682V27.4648H167.061" stroke="#1E212C" stroke-width="1.5" stroke-linecap="round" stroke-linejoin="round"/>
<path d="M149.395 27.4654H156.061" stroke="#1E212C" stroke-width="1.5" stroke-linecap="round" stroke-linejoin="round"/>
<path d="M139.1 34.2807V38.9004C136.607 38.9004 134.587 36.8802 134.587 34.3883C134.587 34.2498 134.593 34.1129 134.605 33.9776C134.858 31.1757 139.1 31.4674 139.1 34.2807Z" fill="#E5E8ED"/>
<path d="M139.1 38.9007C136.607 38.9007 134.587 36.8806 134.587 34.3887" stroke="#1E212C" stroke-width="1.5" stroke-linecap="round" stroke-linejoin="round"/>
<path d="M156.748 42.3232C156.188 42.8836 155.428 43.1983 154.635 43.1983C153.842 43.1983 153.082 42.8836 152.522 42.3232" stroke="#1E212C" stroke-width="1.5" stroke-linecap="round" stroke-linejoin="round"/>
<path d="M160.393 40.7793L157.477 41.4957" stroke="#1E212C" stroke-width="1.5" stroke-linecap="round" stroke-linejoin="round"/>
<path d="M169.947 25.8277C169.947 25.8277 161.729 31.1025 146.003 19.9443C146.003 19.9443 146.409 32.0584 139.712 34.1164" stroke="#1E212C" stroke-width="1.5" stroke-linecap="round" stroke-linejoin="round"/>
<path d="M169.264 29.6827C169.264 29.6827 174.108 27.1467 174.209 21.5677C174.209 21.5677 160.106 -2.06732 141.133 10.7138C141.133 10.7138 130.379 13.3512 129.567 26.4367C128.755 39.5221 136.972 46.4199 136.972 46.4199" stroke="#1E212C" stroke-width="1.5" stroke-linecap="round" stroke-linejoin="round"/>
<path d="M135.959 10.0039C135.553 10.0039 131.179 12.0327 129.511 16.293" stroke="#00F0B5" stroke-width="1.5" stroke-linecap="round" stroke-linejoin="round"/>
<path d="M132.732 8.17793C132.732 8.17793 127.637 -3.58885 116.984 2.49742C106.33 8.58368 107.649 25.8281 107.649 25.8281L123.274 29.3784C123.274 29.3784 123.366 11.5139 128.652 13.4107" stroke="#1E212C" stroke-width="1.5" stroke-linecap="round" stroke-linejoin="round"/>
<path d="M181.865 108.131V178.63L81.9728 203.176V124.66C81.9728 96.8189 100.983 72.5752 128.025 65.9302H128.025C140.994 62.7435 154.707 65.6937 165.217 73.9312C175.726 82.1687 181.865 94.7791 181.865 108.131V108.131Z" fill="#E5E8ED"/>
<path d="M141.178 476.209L166.213 177.135" stroke="#1E212C" stroke-width="1.5" stroke-linecap="round" stroke-linejoin="round"/>
<path d="M104.692 77.421C104.692 77.421 74.9554 94.8433 55.4752 132.578C55.4752 132.578 66.2523 91.6619 59.3531 80.3008C52.4538 68.9398 51.6421 77.421 51.6421 77.421C51.6421 77.421 35.4086 65.288 32.5678 71.3743C29.7269 77.4606 40.2787 87.6043 40.2787 87.6043C40.2787 87.6043 4.66862 145.915 33.3795 167.804C68.6873 194.723 107.6 138.729 107.6 138.729" stroke="#1E212C" stroke-width="1.5" stroke-linecap="round" stroke-linejoin="round"/>
<path d="M168.095 76.3984C168.095 76.3984 188.813 103.388 201.597 146.316C201.597 146.316 226.556 101.603 239.34 100.994C252.124 100.385 243.574 106.472 243.574 106.472C243.574 106.472 263.082 97.3423 266.734 104.646C270.387 111.949 243.574 122.395 243.574 122.395C243.574 122.395 242.384 174.029 222.904 191.071C207.909 204.189 194.361 200.211 183.363 188.024" stroke="#1E212C" stroke-width="1.5" stroke-linecap="round" stroke-linejoin="round"/>
<path d="M62.4203 39.0102C61.2812 39.8792 61.1266 40.7889 61.103 41.0446C60.9217 41.1658 60.756 41.2701 60.5978 41.3577C60.8332 40.9304 61.0522 40.4954 61.2468 40.053C61.5757 39.2937 61.8638 38.5192 62.0947 37.722C62.1241 37.6388 62.1452 37.5476 62.1663 37.4565C62.3456 36.8008 62.6229 36.183 62.9906 35.6196C63.0137 35.586 63.0364 35.5441 63.0675 35.5102C66.2738 33.5764 64.6506 29.8981 64.6506 29.8981C64.7267 30.7178 63.9751 31.3682 63.221 32.8984C62.5879 34.1943 62.8435 35.0819 62.932 35.3174C62.7719 35.5859 62.6267 35.8211 62.4963 36.0146C62.5446 35.7745 62.5848 35.5347 62.6167 35.2869C62.7422 34.4686 62.803 33.6443 62.8155 32.8216L62.821 32.509C62.8254 32.4019 62.8221 32.3034 62.8185 32.1966L62.7977 31.5806C62.7827 31.3755 62.7677 31.1705 62.7527 30.9654C62.7411 30.8589 62.7377 30.7604 62.7261 30.6539L62.6917 30.3508C62.6686 30.146 62.6697 29.9404 62.7033 29.7419L62.897 28.5595C65.1808 25.5551 62.3461 22.7482 62.3461 22.7482C62.7094 23.4842 62.2478 24.3714 62.096 26.0786C61.9675 27.522 62.532 28.2512 62.6997 28.4428C62.647 28.79 62.5845 29.0881 62.5282 29.3285L62.4976 29.1404C62.4665 28.9359 62.4116 28.7404 62.3725 28.5361L62.3058 28.2341C62.2864 28.1361 62.2587 28.0302 62.2312 27.9324C62.121 27.5332 62.0191 27.142 61.877 26.7521L61.7785 26.4594L61.7332 26.3129L61.6799 26.1667L61.459 25.5904C61.3188 25.258 61.1706 24.9258 61.0146 24.6022C60.7371 24.0195 60.5547 23.3926 60.5006 22.7448C60.4875 22.5972 60.4745 22.4497 60.4534 22.3024C61.6124 18.6863 58.0264 17.0149 58.0264 17.0149C58.6096 17.579 58.4661 18.5788 58.8846 20.2339C59.2466 21.6442 60.0126 22.1363 60.2261 22.2525C60.3149 22.7346 60.3607 23.136 60.3946 23.4226C60.3862 23.4147 60.386 23.4065 60.3773 23.3903L60.2233 23.1242C60.172 23.0355 60.1128 22.9552 60.0615 22.8665L59.7298 22.3515L59.3745 21.8537C59.3154 21.7734 59.256 21.685 59.1969 21.6048L59.0115 21.3643C58.8175 21.1078 58.6157 20.8597 58.4061 20.6201C58.1122 20.2682 57.7078 19.7474 57.357 19.381C57.1899 19.2057 57.0464 19.0132 56.9426 18.803C55.3713 15.7067 51.8114 16.715 51.8114 16.715C52.6179 16.7371 53.1625 17.5903 54.5564 18.5382C55.6536 19.2905 56.5051 19.2124 56.8171 19.1443C56.8579 19.1594 56.8984 19.1663 56.9392 19.1813L57.3644 19.6028C57.924 20.1841 58.4522 20.7912 58.9257 21.4495L59.1031 21.6902C59.1622 21.7704 59.2135 21.8591 59.2727 21.9393L59.6121 22.4459L59.757 22.6795C59.3923 22.3793 59.0212 22.1287 58.659 21.9025C56.6173 18.7153 53.0929 20.5364 53.0929 20.5364C53.8947 20.4189 54.5645 21.161 56.0949 21.8575C57.3961 22.4467 58.2482 22.1466 58.4786 22.0484C59.004 22.3349 59.4409 22.6244 59.6884 22.7969C59.8453 22.9067 59.9871 23.0499 60.0734 23.2197L60.2194 23.4861C60.6138 24.1882 60.9372 24.9337 61.2367 25.6883L61.4412 26.257L61.4945 26.4032L61.5398 26.5497L61.6303 26.8426C61.756 27.2249 61.8501 27.6246 61.9439 28.0161C61.9714 28.1139 61.9908 28.2119 62.0102 28.3099L62.0105 28.3181C61.7563 27.9485 61.4951 27.6119 61.2189 27.3088C60.1767 23.652 56.2917 24.3424 56.2917 24.3424C57.0858 24.4718 57.5196 25.3863 58.7822 26.503C59.8542 27.4618 60.7635 27.4228 61.0044 27.3983C61.2966 27.7009 61.5315 27.9725 61.7077 28.1803C61.9511 28.4681 62.1243 28.8241 62.1696 29.209C62.1696 29.209 62.1696 29.209 62.1698 29.2172L62.2545 29.8146L62.2756 29.9619L62.2886 30.1095L62.315 30.4128L62.3414 30.7162C62.3528 30.8145 62.3564 30.9212 62.3597 31.0198C62.3666 31.2251 62.3814 31.422 62.3883 31.6273L62.3927 32.2356C62.3961 32.3342 62.3914 32.433 62.3869 32.5401L62.373 32.8448C62.3556 33.2812 62.322 33.7181 62.2801 34.1471C62.1874 33.7885 62.0711 33.447 61.9553 33.122C62.2623 29.3292 58.3842 28.5557 58.3842 28.5557C59.0831 28.9679 59.1736 29.9762 59.9577 31.4792C60.6297 32.7639 61.486 33.0639 61.7297 33.1214C61.8263 33.3566 61.914 33.5675 61.9847 33.7542C62.1615 34.2169 62.2193 34.733 62.123 35.2214L62.1232 35.2296C61.9809 36.0238 61.7977 36.8029 61.5496 37.5678C61.3014 38.3326 61.0122 39.0742 60.6742 39.801C60.5765 40.0099 60.4707 40.219 60.3566 40.4202C60.4066 39.991 60.433 39.5789 60.4357 39.1842C62.0772 35.7738 58.7562 33.6001 58.7562 33.6001C59.2614 34.2409 58.9799 35.2124 59.1662 36.9082C59.3277 38.35 60.0169 38.9516 60.2234 39.1009C60.2253 39.1584 60.227 39.2076 60.2289 39.2651C60.252 40.1853 60.0089 41.098 59.5109 41.8631L59.5032 41.8716C59.0746 42.5439 58.5881 43.1688 58.0685 43.7702C57.9364 43.9144 57.8128 44.0748 57.6724 44.2111L57.2597 44.6362C57.2514 44.6282 57.2516 44.6365 57.2514 44.6282C57.3724 44.3939 57.477 44.1519 57.5739 43.9184C60.3905 41.4223 58.1431 38.1104 58.1431 38.1104C58.3632 38.9006 57.737 39.6864 57.2685 41.3221C56.8725 42.7169 57.2791 43.5419 57.4154 43.7593C57.3338 43.9676 57.26 44.1675 57.1931 44.3342C57.0221 44.7593 56.7529 45.1384 56.4081 45.4297C56.4081 45.4297 56.4081 45.4297 56.4004 45.4381C55.8053 45.9516 55.1852 46.4412 54.5308 46.8663C54.1444 47.1178 53.7575 47.3529 53.3539 47.5721C53.5168 47.3857 53.6717 47.1995 53.8027 47.0224C56.5275 45.623 55.4075 42.528 55.4075 42.528C55.4222 43.2017 54.77 43.6924 54.0775 44.8999C53.4835 45.9231 53.6456 46.6659 53.7086 46.8611C53.6243 46.9873 53.5396 47.1053 53.4624 47.2066C53.2082 47.5523 52.8793 47.8348 52.4907 48.0206C52.4907 48.0206 52.4907 48.0206 52.4827 48.0208C51.7766 48.3489 51.0449 48.6368 50.3116 48.8753L50.3036 48.8756C50.1043 48.9399 49.9577 49.134 49.965 49.3475C49.9694 49.7174 50.3072 49.9362 50.6178 49.827C51.3983 49.554 52.1529 49.2325 52.8901 48.8705C53.627 48.5002 54.3298 48.0736 55.007 47.6067C55.4167 47.3297 55.8095 47.0286 56.1936 46.7114C56.711 46.2828 57.3385 46.0149 58.0047 45.9349C61.528 47.1808 63.2183 43.5469 63.2183 43.5469C62.6579 44.1332 61.6773 43.9689 60.055 44.3691C58.6724 44.7118 58.1748 45.4851 58.0615 45.7109C57.7249 45.7634 57.4362 45.8061 57.1872 45.8309C57.3979 45.6265 57.6083 45.4138 57.8187 45.2011L58.2303 44.7432C58.3702 44.5904 58.4937 44.43 58.6333 44.2691C59.1515 43.6267 59.6447 42.9604 60.0721 42.2553C60.0796 42.2386 60.0874 42.2301 60.0949 42.2134C60.3089 41.869 60.5976 41.5879 60.9453 41.3871C61.0006 41.3523 61.0561 41.3258 61.1113 41.291C64.8333 41.0255 64.9874 36.9994 64.9874 36.9994C64.7226 37.7484 63.7556 37.9866 62.4203 39.0102Z" fill="#9A9CA5"/>
<path d="M2.81358 38.7896C4.02255 39.6613 4.1882 40.5718 4.2137 40.8277C4.40603 40.9494 4.58186 41.0541 4.7497 41.142C4.49941 40.714 4.26645 40.2783 4.05937 39.8353C3.70929 39.0749 3.40242 38.2995 3.1561 37.5014C3.12475 37.4181 3.10222 37.3268 3.07968 37.2356C2.88836 36.5792 2.59327 35.9605 2.20238 35.3961C2.1779 35.3624 2.1537 35.3204 2.12068 35.2864C-1.28134 33.3451 0.431699 29.6683 0.431699 29.6683C0.352712 30.4882 1.1506 31.1404 1.95286 32.673C2.62641 33.9708 2.35723 34.8584 2.26386 35.0938C2.43412 35.3628 2.58843 35.5984 2.72707 35.7923C2.67542 35.552 2.63229 35.3119 2.59797 35.064C2.4634 34.245 2.39735 33.4201 2.38249 32.597L2.37599 32.2842C2.37107 32.1771 2.37441 32.0785 2.37802 31.9717L2.39887 31.3554C2.41435 31.1502 2.42983 30.9451 2.44531 30.74C2.45746 30.6334 2.4608 30.5348 2.47294 30.4283L2.50882 30.1251C2.53283 29.9203 2.53125 29.7146 2.49526 29.5159L2.28761 28.3325C-0.138718 25.3219 2.86008 22.5194 2.86008 22.5194C2.47646 23.255 2.96741 24.1436 3.13168 25.852C3.27073 27.2964 2.67383 28.0248 2.49653 28.2162C2.5531 28.5636 2.61988 28.862 2.68007 29.1026L2.71206 28.9145C2.7446 28.71 2.80246 28.5145 2.84354 28.3102L2.91354 28.0082C2.93394 27.9102 2.96315 27.8042 2.99208 27.7065C3.10807 27.3073 3.21526 26.9161 3.36511 26.5263L3.46896 26.2336L3.51662 26.0872L3.57281 25.941L3.80583 25.3648C3.95373 25.0325 4.11016 24.7005 4.27485 24.377C4.56787 23.7947 4.7599 23.1677 4.81598 22.5197C4.82952 22.3721 4.84305 22.2245 4.86512 22.0772C3.629 18.4734 7.42662 16.8002 7.42662 16.8002C6.80968 17.3634 6.96374 18.364 6.5234 20.0191C6.14258 21.4294 5.33165 21.9202 5.10567 22.036C5.01248 22.5182 4.96474 22.9196 4.92941 23.2064C4.93822 23.1984 4.9385 23.1902 4.94759 23.1741L5.11033 22.9081C5.16457 22.8194 5.22707 22.7393 5.28132 22.6506L5.63183 22.136L6.00738 21.6387C6.06988 21.5585 6.13266 21.4702 6.19516 21.39L6.39119 21.1498C6.59631 20.8935 6.80968 20.6457 7.0313 20.4064C7.34213 20.055 7.7697 19.5347 8.14081 19.1689C8.31755 18.9939 8.46926 18.8016 8.57886 18.5914C10.2386 15.4804 14.0133 16.5047 14.0133 16.5047C13.1585 16.5251 12.583 17.3777 11.1076 18.3232C9.94621 19.0736 9.04355 18.9937 8.71277 18.925C8.66956 18.94 8.62663 18.9467 8.58341 18.9617L8.13358 19.3825C7.54169 19.963 6.98308 20.5693 6.48253 21.227L6.29503 21.4674C6.23253 21.5476 6.17829 21.6362 6.11579 21.7164L5.75702 22.2225L5.60393 22.4559C5.98987 22.1563 6.38268 21.9064 6.76612 21.6808C8.92373 18.4961 12.6626 20.3254 12.6626 20.3254C11.8126 20.2062 11.1042 20.9473 9.48354 21.6411C8.10565 22.2279 7.20197 21.9259 6.95761 21.8271C6.40132 22.1127 5.93887 22.4014 5.67682 22.5735C5.51083 22.6831 5.36079 22.8261 5.26964 22.9958L5.11543 23.262C4.69881 23.9636 4.35757 24.7089 4.04165 25.4633L3.82597 26.0318L3.76978 26.178L3.72212 26.3245L3.6268 26.6174C3.4943 26.9995 3.39536 27.3993 3.2967 27.7908C3.26777 27.8886 3.24738 27.9866 3.22698 28.0846L3.2267 28.0928C3.49543 27.7235 3.77157 27.3873 4.06367 27.0846C5.16106 23.4281 9.27987 24.1268 9.27987 24.1268C8.43852 24.2546 7.98054 25.1687 6.64457 26.2834C5.51039 27.2405 4.54663 27.1997 4.29124 27.1746C3.98208 27.4767 3.73375 27.748 3.54736 27.9556C3.28995 28.243 3.10709 28.5988 3.0599 28.9839C3.0599 28.9839 3.0599 28.9839 3.05962 28.9921L2.97108 29.5896L2.94901 29.7369L2.93547 29.8846L2.90813 30.188L2.88078 30.4915C2.86891 30.5898 2.8653 30.6966 2.86196 30.7952C2.85501 31.0006 2.83981 31.1975 2.83286 31.403L2.82935 32.0116C2.82602 32.1102 2.83121 32.2091 2.83613 32.3162L2.85144 32.6211C2.87083 33.0577 2.90729 33.495 2.95255 33.9243C3.05009 33.5656 3.17268 33.2243 3.2947 32.8993C2.96188 29.1039 7.07046 28.338 7.07046 28.338C6.33056 28.749 6.23664 29.7576 5.40859 31.2597C4.68243 32.5267 3.77552 32.8251 3.51735 32.8822C3.41545 33.1173 3.32291 33.3281 3.24826 33.5147C3.06179 33.9773 3.00162 34.4936 3.10466 34.9824L3.10438 34.9906C3.25685 35.7855 3.45254 36.5654 3.71703 37.3312C3.98152 38.0969 4.28951 38.8395 4.64923 39.5674C4.75319 39.7765 4.86568 39.986 4.98698 40.1875C4.93318 39.7579 4.90443 39.3456 4.90071 38.9507C3.15428 35.5352 6.66971 33.3672 6.66971 33.3672C6.13559 34.0072 6.43578 34.9799 6.24174 36.6762C6.07338 38.1183 5.34415 38.7189 5.12558 38.8678C5.12364 38.9253 5.12197 38.9746 5.12002 39.0321C5.09742 39.9527 5.35691 40.8664 5.88615 41.6329L5.8944 41.6414C6.34992 42.3149 6.86683 42.9411 7.41869 43.5439C7.559 43.6884 7.69022 43.8492 7.83934 43.9858L8.2776 44.412C8.28641 44.4041 8.28613 44.4123 8.28641 44.4041C8.15769 44.1694 8.04631 43.927 7.94319 43.6932C4.95307 41.19 7.32841 37.8811 7.32841 37.8811C7.09669 38.6712 7.76188 39.4587 8.26166 41.0962C8.68418 42.4925 8.25485 43.3171 8.11085 43.5344C8.19774 43.7429 8.27638 43.943 8.34761 44.11C8.52965 44.5357 8.81574 44.9155 9.18167 45.2076C9.18167 45.2076 9.18167 45.2076 9.18992 45.2161C9.82163 45.7311 10.4798 46.2222 11.1742 46.6488C11.5842 46.9012 11.9948 47.1372 12.4229 47.3574C12.2499 47.1705 12.0853 46.984 11.9461 46.8065C9.05556 45.4008 10.2364 42.3065 10.2364 42.3065C10.2222 42.9805 10.9144 43.4729 11.6507 44.6824C12.2823 45.7073 12.1119 46.4502 12.0456 46.6454C12.1352 46.7718 12.2252 46.89 12.3072 46.9915C12.5773 47.3379 12.9264 47.6212 13.3386 47.8079C13.3386 47.8079 13.3386 47.8079 13.3472 47.8082C14.0962 48.1379 14.8722 48.4273 15.6498 48.6675L15.6584 48.6678C15.8697 48.7325 16.0254 48.927 16.0182 49.1407C16.0142 49.5107 15.6566 49.729 15.3272 49.6191C14.4995 49.3443 13.699 49.0211 12.917 48.6574C12.1353 48.2854 11.3896 47.8571 10.6709 47.3886C10.2362 47.1107 9.81934 46.8086 9.41158 46.4905C8.86241 46.0606 8.19678 45.7913 7.49062 45.7098C3.75892 46.9492 1.96028 43.3099 1.96028 43.3099C2.55536 43.8977 3.59433 43.7354 5.31452 44.139C6.78044 44.4848 7.30941 45.2595 7.42987 45.4857C7.7868 45.5389 8.09282 45.5821 8.35673 45.6075C8.13306 45.4025 7.90966 45.1893 7.68626 44.9761L7.24911 44.5171C7.10055 44.364 6.96933 44.2032 6.82105 44.0419C6.27057 43.3981 5.74652 42.7305 5.29212 42.0241C5.28414 42.0074 5.27589 41.9989 5.26791 41.9821C5.04043 41.6372 4.73395 41.3553 4.36496 41.1537C4.30635 41.1188 4.24746 41.0921 4.18886 41.0572C0.243558 40.784 0.0723618 36.7555 0.0723618 36.7555C0.37098 37.5224 1.39633 37.7627 2.81358 38.7896Z" fill="#9A9CA5"/>
<path d="M31.2182 20.5807C32.2933 19.7576 33.7865 19.7566 34.8626 20.5784L38.0677 23.0261C38.2736 23.1833 38.4989 23.3131 38.7381 23.4124L42.4621 24.9588C43.713 25.4782 44.4607 26.7714 44.2868 28.1146L43.7693 32.112C43.736 32.3689 43.7362 32.6291 43.7697 32.8859L44.2921 36.8827C44.4677 38.2257 43.7215 39.5198 42.4713 40.0407L38.7491 41.5916C38.5101 41.6912 38.2849 41.8213 38.0793 41.9788L34.8772 44.4303C33.802 45.2534 32.3088 45.2543 31.2327 44.4325L28.0276 41.9849C27.8217 41.8277 27.5964 41.6978 27.3573 41.5985L23.6332 40.0522C22.3823 39.5328 21.6346 38.2396 21.8085 36.8964L22.326 32.899C22.3593 32.6421 22.3591 32.3819 22.3256 32.125L21.8032 28.1283C21.6276 26.7853 22.3738 25.4912 23.624 24.9703L27.3462 23.4194C27.5852 23.3198 27.8104 23.1896 28.016 23.0322L31.2182 20.5807Z" fill="#00F0B5"/>
<path d="M31.2184 23.1613C32.2935 22.3382 33.7868 22.3373 34.8629 23.1591L37.0335 24.8168C37.2394 24.9739 37.4647 25.1038 37.7038 25.2031L40.2257 26.2503C41.4766 26.7697 42.2243 28.0629 42.0504 29.4061L41.7 32.1128C41.6667 32.3697 41.6669 32.6299 41.7004 32.8868L42.0542 35.5931C42.2297 36.9361 41.4836 38.2302 40.2333 38.7511L37.7127 39.8013C37.4737 39.9009 37.2485 40.0311 37.0429 40.1885L34.8743 41.8488C33.7992 42.6719 32.3059 42.6728 31.2298 41.851L29.0592 40.1934C28.8533 40.0362 28.628 39.9063 28.3889 39.807L25.867 38.7598C24.6161 38.2404 23.8684 36.9473 24.0423 35.604L24.3927 32.8973C24.426 32.6404 24.4258 32.3802 24.3922 32.1233L24.0385 29.4171C23.863 28.0741 24.6091 26.78 25.8594 26.259L28.38 25.2088C28.619 25.1092 28.8442 24.9791 29.0498 24.8216L31.2184 23.1613Z" fill="white"/>
<path d="M273.684 69.5683C272.528 70.4154 272.356 71.322 272.328 71.5772C272.144 71.695 271.977 71.7961 271.817 71.8806C272.06 71.4578 272.288 71.0271 272.491 70.5885C272.834 69.8356 273.137 69.0668 273.383 68.2741C273.414 68.1915 273.437 68.1007 273.459 68.01C273.651 67.3579 273.94 66.7454 274.319 66.1892C274.342 66.156 274.366 66.1145 274.398 66.0812C277.64 64.2089 276.088 60.5004 276.088 60.5004C276.148 61.3214 275.384 61.9572 274.601 63.4728C273.943 64.7564 274.182 65.6488 274.266 65.8859C274.101 66.1513 273.951 66.3836 273.817 66.5746C273.87 66.3355 273.915 66.0965 273.951 65.8494C274.092 65.0337 274.169 64.2106 274.197 63.3883L274.208 63.0759C274.215 62.9689 274.213 62.8703 274.212 62.7635L274.203 62.1472C274.192 61.9419 274.181 61.7366 274.17 61.5313C274.16 61.4246 274.159 61.326 274.149 61.2193L274.12 60.9156C274.101 60.7104 274.106 60.5048 274.144 60.307L274.36 59.1286C276.7 56.1682 273.92 53.3078 273.92 53.3078C274.269 54.0506 273.791 54.9289 273.606 56.6329C273.45 58.0735 274.001 58.8133 274.165 59.0081C274.105 59.3542 274.037 59.6511 273.976 59.8903L273.949 59.7017C273.922 59.4966 273.871 59.3001 273.836 59.0952L273.775 58.792C273.757 58.6936 273.732 58.5871 273.706 58.4889C273.603 58.0877 273.509 57.6945 273.374 57.302L273.281 57.0075L273.239 56.8602L273.189 56.713L272.979 56.1325C272.845 55.7975 272.703 55.4626 272.553 55.1361C272.287 54.5483 272.116 53.9179 272.075 53.2692C272.064 53.1214 272.054 52.9736 272.036 52.826C273.264 49.2327 269.71 47.4932 269.71 47.4932C270.282 48.0684 270.12 49.0652 270.507 50.728C270.842 52.1449 271.598 52.6516 271.81 52.7718C271.889 53.2555 271.927 53.6577 271.956 53.9449C271.948 53.9368 271.947 53.9286 271.939 53.9123L271.79 53.6433C271.74 53.5536 271.683 53.4722 271.633 53.3826L271.311 52.8613L270.966 52.3568C270.908 52.2755 270.85 52.1859 270.793 52.1046L270.612 51.8606C270.423 51.6004 270.226 51.3485 270.021 51.105C269.734 50.7476 269.339 50.2191 268.996 49.8461C268.832 49.6677 268.692 49.4725 268.592 49.2603C267.08 46.1347 263.502 47.075 263.502 47.075C264.308 47.1124 264.836 47.9759 266.212 48.9501C267.294 49.7232 268.147 49.6614 268.46 49.5992C268.501 49.6151 268.541 49.6227 268.582 49.6385L268.999 50.068C269.547 50.6599 270.064 51.2769 270.525 51.9441L270.697 52.1881C270.755 52.2695 270.805 52.3592 270.862 52.4405L271.192 52.9534L271.332 53.1897C270.973 52.8827 270.607 52.6251 270.249 52.392C268.269 49.1664 264.71 50.9201 264.71 50.9201C265.514 50.8179 266.17 51.5726 267.687 52.2982C268.976 52.9121 269.834 52.6282 270.066 52.5344C270.586 52.8309 271.017 53.1286 271.262 53.3058C271.416 53.4186 271.555 53.5645 271.638 53.7359L271.779 54.005C272.16 54.7145 272.469 55.4661 272.754 56.2262L272.948 56.7987L272.999 56.9459L273.041 57.0932L273.126 57.3879C273.244 57.7724 273.331 58.1739 273.417 58.5671C273.443 58.6654 273.46 58.7637 273.478 58.8621L273.478 58.8703C273.231 58.4959 272.976 58.1544 272.706 57.8461C271.733 54.1701 267.836 54.7863 267.836 54.7863C268.628 54.9308 269.044 55.8534 270.285 56.994C271.338 57.973 272.248 57.9514 272.49 57.9315C272.776 58.2396 273.006 58.5156 273.178 58.7268C273.416 59.0192 273.582 59.3783 273.62 59.7641C273.62 59.7641 273.62 59.7641 273.62 59.7723L273.693 60.3712L273.712 60.5189L273.722 60.6667L273.742 60.9705L273.763 61.2743C273.773 61.3727 273.774 61.4796 273.776 61.5782C273.779 61.7836 273.79 61.9807 273.793 62.1861L273.785 62.7944C273.787 62.893 273.78 62.9917 273.774 63.0987L273.754 63.4031C273.728 63.8391 273.686 64.2753 273.636 64.7034C273.55 64.343 273.441 63.9994 273.331 63.6723C273.71 59.886 269.848 59.0388 269.848 59.0388C270.539 59.4642 270.61 60.4741 271.365 61.9917C272.013 63.289 272.863 63.6052 273.106 63.6674C273.198 63.9044 273.281 64.1169 273.349 64.3049C273.517 64.7709 273.564 65.288 273.459 65.7745L273.459 65.7827C273.301 66.574 273.103 67.3495 272.841 68.1095C272.578 68.8695 272.275 69.6054 271.923 70.3257C271.821 70.5326 271.712 70.7397 271.594 70.9387C271.652 70.5105 271.686 70.099 271.696 69.7044C273.402 66.326 270.124 64.0893 270.124 64.0893C270.616 64.7396 270.316 65.7056 270.47 67.4047C270.604 68.8492 271.282 69.4639 271.486 69.6171C271.486 69.6746 271.487 69.7239 271.488 69.7814C271.494 70.7018 271.233 71.6097 270.721 72.3652L270.713 72.3735C270.271 73.0375 269.773 73.6531 269.242 74.2444C269.107 74.3861 268.981 74.5441 268.838 74.6777L268.417 75.0949C268.409 75.0868 268.409 75.095 268.409 75.0868C268.534 74.8548 268.643 74.6148 268.745 74.3832C271.608 71.9412 269.425 68.5871 269.425 68.5871C269.63 69.3813 268.989 70.1551 268.489 71.7816C268.066 73.1686 268.457 74.0012 268.589 74.2211C268.504 74.4279 268.426 74.6263 268.356 74.7917C268.177 75.2135 267.901 75.5874 267.55 75.872C267.55 75.872 267.55 75.872 267.542 75.8803C266.938 76.3823 266.308 76.8601 265.646 77.2725C265.255 77.5166 264.864 77.7443 264.456 77.9558C264.622 77.7725 264.781 77.5894 264.915 77.4148C267.666 76.0675 266.605 72.9517 266.605 72.9517C266.607 73.6257 265.946 74.1039 265.23 75.2979C264.617 76.3096 264.765 77.0554 264.824 77.2518C264.737 77.3763 264.65 77.4927 264.571 77.5924C264.311 77.9333 263.976 78.2094 263.584 78.3878C263.584 78.3878 263.584 78.3878 263.576 78.3879C262.864 78.7025 262.127 78.9763 261.389 79.2008L261.381 79.201C261.181 79.2614 261.03 79.4527 261.034 79.6663C261.031 80.0362 261.365 80.2614 261.677 80.1582C262.463 79.9001 263.223 79.593 263.967 79.2451C264.711 78.889 265.422 78.4758 266.108 78.0219C266.523 77.7528 266.921 77.4593 267.311 77.1494C267.837 76.7307 268.469 76.4749 269.137 76.4075C272.636 77.7204 274.395 74.1193 274.395 74.1193C273.824 74.6948 272.846 74.5119 271.217 74.8811C269.828 75.1974 269.316 75.9611 269.198 76.1847C268.86 76.2308 268.571 76.2679 268.322 76.288C268.536 76.0876 268.751 75.879 268.965 75.6704L269.385 75.2204C269.528 75.0703 269.655 74.9123 269.797 74.754C270.328 74.1216 270.833 73.4649 271.274 72.768C271.282 72.7514 271.29 72.7431 271.298 72.7266C271.518 72.3863 271.812 72.1108 272.164 71.9166C272.22 71.8829 272.276 71.8574 272.332 71.8237C276.058 71.6292 276.289 67.6067 276.289 67.6067C276.01 68.3506 275.038 68.5703 273.684 69.5683Z" fill="#9A9CA5"/>
<path d="M214.092 68.2117C215.284 69.1063 215.433 70.0198 215.453 70.2762C215.643 70.4015 215.817 70.5095 215.983 70.6006C215.741 70.1679 215.516 69.7279 215.318 69.281C214.982 68.514 214.69 67.7329 214.459 66.9303C214.429 66.8464 214.409 66.7547 214.388 66.6631C214.209 66.0032 213.926 65.3789 213.546 64.8072C213.522 64.773 213.499 64.7306 213.466 64.696C210.102 62.6902 211.885 59.0467 211.885 59.0467C211.79 59.865 212.575 60.5322 213.348 62.0798C213.997 63.3903 213.711 64.2725 213.613 64.5061C213.778 64.7783 213.928 65.0168 214.063 65.2133C214.016 64.972 213.977 64.7312 213.948 64.4827C213.829 63.6613 213.778 62.8353 213.779 62.012L213.779 61.6992C213.776 61.592 213.781 61.4934 213.787 61.3867L213.819 60.771C213.839 60.5662 213.858 60.3613 213.877 60.1565C213.892 60.0503 213.897 59.9517 213.911 59.8455L213.953 59.543C213.981 59.3387 213.983 59.133 213.951 58.9337L213.766 57.7465C211.397 54.6902 214.449 51.9454 214.449 51.9454C214.051 52.6736 214.525 53.5713 214.657 55.2826C214.768 56.7293 214.158 57.4462 213.977 57.6342C214.027 57.9827 214.088 58.2823 214.143 58.524L214.179 58.3365C214.215 58.1326 214.277 57.9383 214.322 57.7348L214.398 57.4342C214.42 57.3366 214.451 57.2312 214.482 57.134C214.606 56.7371 214.72 56.348 214.877 55.9611L214.987 55.6705L215.037 55.525L215.096 55.3799L215.34 54.8083C215.494 54.4789 215.657 54.1499 215.828 53.8296C216.132 53.2529 216.336 52.6298 216.404 51.983C216.421 51.8356 216.437 51.6883 216.462 51.5414C215.295 47.9147 219.124 46.3142 219.124 46.3142C218.496 46.8656 218.631 47.8689 218.159 49.5153C217.752 50.9181 216.931 51.3934 216.703 51.5048C216.601 51.9851 216.546 52.3856 216.505 52.6716C216.514 52.6639 216.514 52.6557 216.524 52.6397L216.691 52.3769C216.747 52.2893 216.811 52.2103 216.867 52.1227L217.227 51.6149L217.612 51.1248C217.676 51.0458 217.741 50.9587 217.805 50.8797L218.005 50.6434C218.215 50.391 218.433 50.1473 218.66 49.9123C218.977 49.5668 219.415 49.0548 219.793 48.6961C219.973 48.5245 220.128 48.3351 220.242 48.127C221.96 45.0482 225.715 46.1443 225.715 46.1443C224.86 46.1484 224.268 46.9899 222.775 47.9071C221.599 48.6353 220.698 48.5382 220.369 48.4631C220.326 48.4773 220.283 48.4832 220.239 48.4974L219.781 48.9095C219.178 49.4787 218.608 50.0742 218.095 50.7222L217.903 50.959C217.839 51.038 217.783 51.1256 217.719 51.2045L217.351 51.7037L217.193 51.9342C217.585 51.642 217.983 51.3996 218.37 51.1813C220.588 48.0384 224.292 49.9386 224.292 49.9386C223.444 49.8032 222.721 50.5306 221.088 51.1934C219.699 51.7539 218.801 51.4347 218.559 51.3313C217.997 51.6062 217.529 51.8861 217.264 52.0532C217.096 52.1595 216.943 52.2996 216.849 52.4676L216.69 52.7308C216.26 53.4244 215.904 54.163 215.574 54.9112L215.348 55.4756L215.289 55.6206L215.238 55.7662L215.137 56.0572C214.998 56.4368 214.891 56.8346 214.785 57.2241C214.754 57.3213 214.732 57.4189 214.71 57.5166L214.709 57.5248C214.985 57.1606 215.267 56.8298 215.565 56.5327C216.732 52.8977 220.837 53.6748 220.837 53.6748C219.993 53.7866 219.518 54.6918 218.161 55.7808C217.009 56.7161 216.046 56.6569 215.791 56.627C215.476 56.9232 215.223 57.1897 215.032 57.3937C214.77 57.6762 214.58 58.0284 214.525 58.4125C214.525 58.4125 214.525 58.4125 214.525 58.4207L214.425 59.0164L214.4 59.1633L214.384 59.3106L214.351 59.6135L214.318 59.9164C214.304 60.0144 214.298 60.1212 214.293 60.2197C214.282 60.4249 214.263 60.6215 214.252 60.8268L214.237 61.4353C214.232 61.5338 214.235 61.6327 214.238 61.7399L214.248 62.0451C214.259 62.482 214.287 62.9198 214.324 63.3499C214.428 62.9932 214.557 62.6542 214.686 62.3317C214.425 58.5307 218.548 57.8431 218.548 57.8431C217.8 58.2399 217.687 59.2466 216.83 60.7327C216.08 61.9856 215.168 62.2666 214.908 62.3188C214.802 62.5519 214.706 62.7609 214.627 62.9461C214.432 63.4051 214.362 63.92 214.456 64.4108L214.455 64.419C214.593 65.2166 214.773 66.0001 215.023 66.7708C215.273 67.5414 215.567 68.2897 215.913 69.0243C216.013 69.2354 216.121 69.447 216.239 69.6508C216.193 69.2203 216.172 68.8075 216.176 68.4125C214.495 64.9645 218.051 62.8638 218.051 62.8638C217.505 63.4935 217.786 64.4717 217.56 66.164C217.364 67.6027 216.624 68.1892 216.402 68.3339C216.399 68.3914 216.397 68.4407 216.394 68.4981C216.353 69.4181 216.595 70.3366 217.11 71.113L217.118 71.1217C217.561 71.8038 218.066 72.4397 218.606 73.0529C218.743 73.2001 218.871 73.3633 219.018 73.5028L219.448 73.9372C219.457 73.9295 219.456 73.9377 219.457 73.9295C219.333 73.6924 219.226 73.448 219.127 73.2122C216.185 70.6525 218.623 67.3894 218.623 67.3894C218.377 68.175 219.027 68.975 219.495 70.6218C219.891 72.0259 219.446 72.8421 219.298 73.0566C219.381 73.2668 219.456 73.4683 219.524 73.6366C219.698 74.0657 219.976 74.4509 220.337 74.7499C220.337 74.7499 220.337 74.7499 220.345 74.7586C220.967 75.2855 221.615 75.7891 222.301 76.2288C222.707 76.489 223.112 76.7328 223.536 76.9611C223.367 76.771 223.206 76.5813 223.07 76.4012C220.207 74.9407 221.447 71.8694 221.447 71.8694C221.419 72.5431 222.102 73.0485 222.815 74.2718C223.427 75.3086 223.243 76.0481 223.173 76.242C223.26 76.3701 223.348 76.49 223.428 76.593C223.691 76.9445 224.035 77.2344 224.443 77.4289C224.443 77.4289 224.443 77.4289 224.452 77.4294C225.194 77.7733 225.965 78.0775 226.738 78.3325L226.746 78.3329C226.956 78.4017 227.108 78.5991 227.097 78.8126C227.086 79.1825 226.724 79.3939 226.397 79.2777C225.575 78.9872 224.781 78.6488 224.006 78.2703C223.231 77.8835 222.494 77.441 221.784 76.9589C221.355 76.6727 220.944 76.3628 220.542 76.0369C220.001 75.5967 219.341 75.3147 218.636 75.2198C214.882 76.3879 213.153 72.715 213.153 72.715C213.737 73.3139 214.778 73.1715 216.491 73.6079C217.95 73.9814 218.464 74.7661 218.58 74.9945C218.936 75.0545 219.241 75.1036 219.504 75.134C219.285 74.9248 219.065 74.7074 218.846 74.4899L218.418 74.0227C218.272 73.8668 218.144 73.7036 217.999 73.5395C217.461 72.8853 216.949 72.2078 216.509 71.4929C216.501 71.476 216.493 71.4673 216.485 71.4505C216.264 71.1012 215.963 70.8136 215.598 70.6049C215.54 70.5689 215.482 70.5411 215.424 70.5051C211.485 70.1567 211.39 66.1257 211.39 66.1257C211.674 66.8982 212.695 67.158 214.092 68.2117Z" fill="#9A9CA5"/>
<path d="M242.838 50.5457C243.929 49.7432 245.422 49.7708 246.482 50.6129L249.64 53.1212C249.843 53.2823 250.065 53.4164 250.303 53.5203L253.996 55.1373C255.237 55.6805 255.96 56.9877 255.761 58.3273L255.167 62.3141C255.129 62.5704 255.124 62.8305 255.153 63.088L255.599 67.0939C255.749 68.44 254.978 69.7196 253.718 70.2167L249.967 71.6963C249.726 71.7914 249.499 71.9172 249.29 72.0707L246.042 74.4607C244.951 75.2632 243.458 75.2357 242.398 74.3935L239.24 71.8852C239.037 71.7242 238.814 71.59 238.577 71.4862L234.883 69.8691C233.642 69.326 232.92 68.0188 233.119 66.6791L233.713 62.6923C233.751 62.4361 233.756 62.176 233.727 61.9185L233.281 57.9125C233.131 56.5664 233.902 55.2868 235.162 54.7898L238.913 53.3101C239.154 53.2151 239.381 53.0892 239.59 52.9358L242.838 50.5457Z" fill="#00F0B5"/>
<path d="M242.788 53.127C243.879 52.3245 245.372 52.3521 246.432 53.1942L248.57 54.8929C248.773 55.054 248.996 55.1881 249.233 55.292L251.735 56.387C252.976 56.9302 253.698 58.2374 253.499 59.577L253.097 62.2766C253.059 62.5328 253.054 62.7929 253.083 63.0504L253.385 65.7629C253.535 67.1091 252.764 68.3887 251.504 68.8857L248.964 69.8877C248.723 69.9827 248.495 70.1086 248.287 70.2621L246.087 71.8807C244.996 72.6832 243.503 72.6556 242.443 71.8135L240.304 70.1148C240.102 69.9537 239.879 69.8196 239.642 69.7157L237.14 68.6207C235.899 68.0775 235.176 66.7703 235.376 65.4306L235.778 62.7311C235.816 62.4749 235.821 62.2147 235.792 61.9573L235.49 59.2447C235.34 57.8986 236.111 56.619 237.371 56.122L239.911 55.12C240.152 55.0249 240.38 54.8991 240.588 54.7456L242.788 53.127Z" fill="white"/>
</svg>
