<svg width="148" height="148" viewBox="0 0 148 148" fill="none" xmlns="http://www.w3.org/2000/svg">
<g clip-path="url(#clip0_2199_188)">
<circle opacity="0.3" cx="74" cy="74" r="71" stroke="#F52F6E" stroke-width="6"/>
<path d="M74 142C111.555 142 142 111.555 142 74C142 36.4446 111.555 6 74 6V0C114.869 0 148 33.1309 148 74C148 114.869 114.869 148 74 148C33.1309 148 0 114.869 0 74H6C6 111.555 36.4446 142 74 142Z" fill="#F52F6E"/>
<path d="M65.7015 77.136V70.224C65.7015 69.8613 65.7122 69.4773 65.7335 69.072C65.7655 68.656 65.8082 68.224 65.8615 67.776L59.1415 77.136H65.7015ZM72.2295 77.136V79.632C72.2295 79.8667 72.1495 80.0693 71.9895 80.24C71.8402 80.4 71.6268 80.48 71.3495 80.48H69.5415V86H65.7015V80.48H56.1175C55.8402 80.48 55.5842 80.3947 55.3495 80.224C55.1255 80.0533 54.9868 79.8293 54.9335 79.552L54.4695 77.344L65.3495 62.768H69.5415V77.136H72.2295ZM79.768 71.104C80.248 71.008 80.7067 70.9387 81.144 70.896C81.592 70.8533 82.024 70.832 82.44 70.832C83.656 70.832 84.728 71.0187 85.656 71.392C86.5947 71.7547 87.3787 72.256 88.008 72.896C88.648 73.536 89.128 74.288 89.448 75.152C89.768 76.016 89.928 76.944 89.928 77.936C89.928 79.1733 89.7093 80.304 89.272 81.328C88.8347 82.3413 88.2267 83.216 87.448 83.952C86.68 84.6773 85.7573 85.2427 84.68 85.648C83.6133 86.0533 82.4453 86.256 81.176 86.256C80.44 86.256 79.736 86.176 79.064 86.016C78.392 85.8667 77.7627 85.664 77.176 85.408C76.6 85.1413 76.0613 84.8373 75.56 84.496C75.0587 84.1547 74.6107 83.7973 74.216 83.424L75.576 81.568C75.864 81.1733 76.2373 80.976 76.696 80.976C76.984 80.976 77.2667 81.0613 77.544 81.232C77.8213 81.4027 78.136 81.5947 78.488 81.808C78.84 82.0107 79.2507 82.1973 79.72 82.368C80.1893 82.5387 80.76 82.624 81.432 82.624C82.1253 82.624 82.728 82.512 83.24 82.288C83.752 82.0533 84.1733 81.7387 84.504 81.344C84.8453 80.9387 85.096 80.464 85.256 79.92C85.4267 79.3653 85.512 78.7733 85.512 78.144C85.512 76.9387 85.1653 76.0107 84.472 75.36C83.7893 74.6987 82.792 74.368 81.48 74.368C80.4027 74.368 79.32 74.5707 78.232 74.976L75.496 74.208L77.448 62.784H89.096V64.64C89.096 64.9493 89.048 65.232 88.952 65.488C88.8667 65.7333 88.7173 65.952 88.504 66.144C88.3013 66.3253 88.0347 66.4693 87.704 66.576C87.384 66.672 86.9893 66.72 86.52 66.72H80.52L79.768 71.104Z" fill="#1E212C"/>
</g>
<defs>
<clipPath id="clip0_2199_188">
<rect width="148" height="148" fill="white"/>
</clipPath>
</defs>
</svg>
