<svg width="148" height="148" viewBox="0 0 148 148" fill="none" xmlns="http://www.w3.org/2000/svg">
<g clip-path="url(#clip0_2199_177)">
<circle cx="74" cy="74" r="71" stroke="#03CEA4" stroke-width="6"/>
<path d="M49.0939 82.752V86H36.0699V82.752H40.6779V70.048C40.6779 69.7707 40.6832 69.488 40.6939 69.2C40.7045 68.912 40.7205 68.6187 40.7419 68.32L37.7019 70.848C37.4885 71.008 37.2805 71.1093 37.0779 71.152C36.8752 71.1947 36.6832 71.2 36.5019 71.168C36.3205 71.1253 36.1605 71.0613 36.0219 70.976C35.8832 70.88 35.7765 70.784 35.7019 70.688L34.3099 68.816L41.4459 62.768H45.0779V82.752H49.0939ZM68.8244 74.384C68.8244 76.4107 68.6057 78.1707 68.1684 79.664C67.731 81.1573 67.1284 82.3947 66.3604 83.376C65.5924 84.3467 64.6804 85.072 63.6244 85.552C62.579 86.0213 61.4484 86.256 60.2324 86.256C59.0164 86.256 57.8857 86.0213 56.8404 85.552C55.795 85.072 54.8937 84.3467 54.1364 83.376C53.379 82.3947 52.7817 81.1573 52.3444 79.664C51.9177 78.1707 51.7044 76.4107 51.7044 74.384C51.7044 72.3573 51.9177 70.6027 52.3444 69.12C52.7817 67.6267 53.379 66.3947 54.1364 65.424C54.8937 64.4427 55.795 63.7173 56.8404 63.248C57.8857 62.768 59.0164 62.528 60.2324 62.528C61.4484 62.528 62.579 62.768 63.6244 63.248C64.6804 63.7173 65.5924 64.4427 66.3604 65.424C67.1284 66.3947 67.731 67.6267 68.1684 69.12C68.6057 70.6027 68.8244 72.3573 68.8244 74.384ZM64.2644 74.384C64.2644 72.7413 64.147 71.3867 63.9124 70.32C63.6884 69.2533 63.3897 68.4107 63.0164 67.792C62.643 67.1733 62.211 66.7413 61.7204 66.496C61.2404 66.2507 60.7444 66.128 60.2324 66.128C59.7204 66.128 59.2244 66.2507 58.7444 66.496C58.275 66.7413 57.8537 67.1733 57.4804 67.792C57.1177 68.4107 56.8244 69.2533 56.6004 70.32C56.3764 71.3867 56.2644 72.7413 56.2644 74.384C56.2644 76.0373 56.3764 77.3973 56.6004 78.464C56.8244 79.5307 57.1177 80.3733 57.4804 80.992C57.8537 81.6107 58.275 82.0427 58.7444 82.288C59.2244 82.5333 59.7204 82.656 60.2324 82.656C60.7444 82.656 61.2404 82.5333 61.7204 82.288C62.211 82.0427 62.643 81.6107 63.0164 80.992C63.3897 80.3733 63.6884 79.5307 63.9124 78.464C64.147 77.3973 64.2644 76.0373 64.2644 74.384ZM87.3869 74.384C87.3869 76.4107 87.1682 78.1707 86.7309 79.664C86.2935 81.1573 85.6909 82.3947 84.9229 83.376C84.1549 84.3467 83.2429 85.072 82.1869 85.552C81.1415 86.0213 80.0109 86.256 78.7949 86.256C77.5789 86.256 76.4482 86.0213 75.4029 85.552C74.3575 85.072 73.4562 84.3467 72.6989 83.376C71.9415 82.3947 71.3442 81.1573 70.9069 79.664C70.4802 78.1707 70.2669 76.4107 70.2669 74.384C70.2669 72.3573 70.4802 70.6027 70.9069 69.12C71.3442 67.6267 71.9415 66.3947 72.6989 65.424C73.4562 64.4427 74.3575 63.7173 75.4029 63.248C76.4482 62.768 77.5789 62.528 78.7949 62.528C80.0109 62.528 81.1415 62.768 82.1869 63.248C83.2429 63.7173 84.1549 64.4427 84.9229 65.424C85.6909 66.3947 86.2935 67.6267 86.7309 69.12C87.1682 70.6027 87.3869 72.3573 87.3869 74.384ZM82.8269 74.384C82.8269 72.7413 82.7095 71.3867 82.4749 70.32C82.2509 69.2533 81.9522 68.4107 81.5789 67.792C81.2055 67.1733 80.7735 66.7413 80.2829 66.496C79.8029 66.2507 79.3069 66.128 78.7949 66.128C78.2829 66.128 77.7869 66.2507 77.3069 66.496C76.8375 66.7413 76.4162 67.1733 76.0429 67.792C75.6802 68.4107 75.3869 69.2533 75.1629 70.32C74.9389 71.3867 74.8269 72.7413 74.8269 74.384C74.8269 76.0373 74.9389 77.3973 75.1629 78.464C75.3869 79.5307 75.6802 80.3733 76.0429 80.992C76.4162 81.6107 76.8375 82.0427 77.3069 82.288C77.7869 82.5333 78.2829 82.656 78.7949 82.656C79.3069 82.656 79.8029 82.5333 80.2829 82.288C80.7735 82.0427 81.2055 81.6107 81.5789 80.992C81.9522 80.3733 82.2509 79.5307 82.4749 78.464C82.7095 77.3973 82.8269 76.0373 82.8269 74.384ZM100.189 68.4C100.189 69.264 100.04 70.048 99.7414 70.752C99.4427 71.456 99.0374 72.064 98.5254 72.576C98.024 73.0773 97.4427 73.4667 96.7814 73.744C96.12 74.0107 95.432 74.144 94.7174 74.144C93.928 74.144 93.2027 74.0107 92.5414 73.744C91.88 73.4667 91.304 73.0773 90.8134 72.576C90.3334 72.064 89.9547 71.456 89.6774 70.752C89.4107 70.048 89.2774 69.264 89.2774 68.4C89.2774 67.504 89.4107 66.6987 89.6774 65.984C89.9547 65.2587 90.3334 64.6453 90.8134 64.144C91.304 63.632 91.88 63.2373 92.5414 62.96C93.2027 62.6827 93.928 62.544 94.7174 62.544C95.5067 62.544 96.2374 62.6827 96.9094 62.96C97.5814 63.2373 98.1574 63.632 98.6374 64.144C99.128 64.6453 99.5067 65.2587 99.7734 65.984C100.051 66.6987 100.189 67.504 100.189 68.4ZM96.7974 68.4C96.7974 67.824 96.744 67.344 96.6374 66.96C96.5307 66.5653 96.3814 66.2507 96.1894 66.016C96.008 65.7813 95.7894 65.616 95.5334 65.52C95.2774 65.4133 95.0054 65.36 94.7174 65.36C94.4294 65.36 94.1574 65.4133 93.9014 65.52C93.656 65.616 93.4427 65.7813 93.2614 66.016C93.0907 66.2507 92.952 66.5653 92.8454 66.96C92.7494 67.344 92.7014 67.824 92.7014 68.4C92.7014 68.9653 92.7494 69.4347 92.8454 69.808C92.952 70.1813 93.0907 70.4853 93.2614 70.72C93.4427 70.944 93.656 71.104 93.9014 71.2C94.1574 71.296 94.4294 71.344 94.7174 71.344C95.0054 71.344 95.2774 71.296 95.5334 71.2C95.7894 71.104 96.008 70.944 96.1894 70.72C96.3814 70.4853 96.5307 70.1813 96.6374 69.808C96.744 69.4347 96.7974 68.9653 96.7974 68.4ZM107.709 63.456C107.859 63.2853 108.035 63.1307 108.237 62.992C108.451 62.8533 108.744 62.784 109.117 62.784H112.333L94.9734 85.36C94.824 85.5413 94.6427 85.696 94.4294 85.824C94.216 85.9413 93.9547 86 93.6454 86H90.3654L107.709 63.456ZM113.405 80.544C113.405 81.408 113.256 82.192 112.957 82.896C112.659 83.6 112.253 84.208 111.741 84.72C111.24 85.2213 110.659 85.6107 109.997 85.888C109.336 86.1547 108.648 86.288 107.933 86.288C107.144 86.288 106.419 86.1547 105.757 85.888C105.096 85.6107 104.52 85.2213 104.029 84.72C103.549 84.208 103.171 83.6 102.893 82.896C102.627 82.192 102.493 81.408 102.493 80.544C102.493 79.648 102.627 78.8427 102.893 78.128C103.171 77.4027 103.549 76.7893 104.029 76.288C104.52 75.776 105.096 75.3867 105.757 75.12C106.419 74.8427 107.144 74.704 107.933 74.704C108.723 74.704 109.453 74.8427 110.125 75.12C110.797 75.3867 111.373 75.776 111.853 76.288C112.344 76.7893 112.723 77.4027 112.989 78.128C113.267 78.8427 113.405 79.648 113.405 80.544ZM110.013 80.544C110.013 79.968 109.96 79.488 109.853 79.104C109.747 78.7093 109.597 78.3947 109.405 78.16C109.224 77.9253 109.005 77.76 108.749 77.664C108.493 77.5573 108.221 77.504 107.933 77.504C107.645 77.504 107.373 77.5573 107.117 77.664C106.872 77.76 106.659 77.9253 106.477 78.16C106.307 78.3947 106.168 78.7093 106.061 79.104C105.965 79.488 105.917 79.968 105.917 80.544C105.917 81.1093 105.965 81.5787 106.061 81.952C106.168 82.3253 106.307 82.6293 106.477 82.864C106.659 83.088 106.872 83.248 107.117 83.344C107.373 83.44 107.645 83.488 107.933 83.488C108.221 83.488 108.493 83.44 108.749 83.344C109.005 83.248 109.224 83.088 109.405 82.864C109.597 82.6293 109.747 82.3253 109.853 81.952C109.96 81.5787 110.013 81.1093 110.013 80.544Z" fill="#1E212C"/>
</g>
<defs>
<clipPath id="clip0_2199_177">
<rect width="148" height="148" fill="white"/>
</clipPath>
</defs>
</svg>
