<svg width="148" height="148" viewBox="0 0 148 148" fill="none" xmlns="http://www.w3.org/2000/svg">
<g clip-path="url(#clip0_2199_182)">
<circle opacity="0.3" cx="74" cy="74" r="71" stroke="#5A87FC" stroke-width="6"/>
<path d="M74 142C111.555 142 142 111.555 142 74C142 36.4446 111.555 6 74 6V0C114.869 0 148 33.1309 148 74C148 114.869 114.869 148 74 148C33.1309 148 0 114.869 0 74C0 62.1418 2.78922 50.935 7.74738 41L13.2072 43.5C8.59608 52.673 6 63.0333 6 74C6 111.555 36.4446 142 74 142Z" fill="#5A87FC"/>
<path d="M43.143 71.104C43.623 71.008 44.0817 70.9387 44.519 70.896C44.967 70.8533 45.399 70.832 45.815 70.832C47.031 70.832 48.103 71.0187 49.031 71.392C49.9697 71.7547 50.7537 72.256 51.383 72.896C52.023 73.536 52.503 74.288 52.823 75.152C53.143 76.016 53.303 76.944 53.303 77.936C53.303 79.1733 53.0843 80.304 52.647 81.328C52.2097 82.3413 51.6017 83.216 50.823 83.952C50.055 84.6773 49.1323 85.2427 48.055 85.648C46.9883 86.0533 45.8203 86.256 44.551 86.256C43.815 86.256 43.111 86.176 42.439 86.016C41.767 85.8667 41.1377 85.664 40.551 85.408C39.975 85.1413 39.4363 84.8373 38.935 84.496C38.4337 84.1547 37.9857 83.7973 37.591 83.424L38.951 81.568C39.239 81.1733 39.6123 80.976 40.071 80.976C40.359 80.976 40.6417 81.0613 40.919 81.232C41.1963 81.4027 41.511 81.5947 41.863 81.808C42.215 82.0107 42.6257 82.1973 43.095 82.368C43.5643 82.5387 44.135 82.624 44.807 82.624C45.5003 82.624 46.103 82.512 46.615 82.288C47.127 82.0533 47.5483 81.7387 47.879 81.344C48.2203 80.9387 48.471 80.464 48.631 79.92C48.8017 79.3653 48.887 78.7733 48.887 78.144C48.887 76.9387 48.5403 76.0107 47.847 75.36C47.1643 74.6987 46.167 74.368 44.855 74.368C43.7777 74.368 42.695 74.5707 41.607 74.976L38.871 74.208L40.823 62.784H52.471V64.64C52.471 64.9493 52.423 65.232 52.327 65.488C52.2417 65.7333 52.0923 65.952 51.879 66.144C51.6763 66.3253 51.4097 66.4693 51.079 66.576C50.759 66.672 50.3643 66.72 49.895 66.72H43.895L43.143 71.104ZM66.2015 77.136V70.224C66.2015 69.8613 66.2122 69.4773 66.2335 69.072C66.2655 68.656 66.3082 68.224 66.3615 67.776L59.6415 77.136H66.2015ZM72.7295 77.136V79.632C72.7295 79.8667 72.6495 80.0693 72.4895 80.24C72.3402 80.4 72.1268 80.48 71.8495 80.48H70.0415V86H66.2015V80.48H56.6175C56.3402 80.48 56.0842 80.3947 55.8495 80.224C55.6255 80.0533 55.4868 79.8293 55.4335 79.552L54.9695 77.344L65.8495 62.768H70.0415V77.136H72.7295ZM91.34 74.384C91.34 76.4107 91.1213 78.1707 90.684 79.664C90.2467 81.1573 89.644 82.3947 88.876 83.376C88.108 84.3467 87.196 85.072 86.14 85.552C85.0947 86.0213 83.964 86.256 82.748 86.256C81.532 86.256 80.4013 86.0213 79.356 85.552C78.3107 85.072 77.4093 84.3467 76.652 83.376C75.8947 82.3947 75.2973 81.1573 74.86 79.664C74.4333 78.1707 74.22 76.4107 74.22 74.384C74.22 72.3573 74.4333 70.6027 74.86 69.12C75.2973 67.6267 75.8947 66.3947 76.652 65.424C77.4093 64.4427 78.3107 63.7173 79.356 63.248C80.4013 62.768 81.532 62.528 82.748 62.528C83.964 62.528 85.0947 62.768 86.14 63.248C87.196 63.7173 88.108 64.4427 88.876 65.424C89.644 66.3947 90.2467 67.6267 90.684 69.12C91.1213 70.6027 91.34 72.3573 91.34 74.384ZM86.78 74.384C86.78 72.7413 86.6627 71.3867 86.428 70.32C86.204 69.2533 85.9053 68.4107 85.532 67.792C85.1587 67.1733 84.7267 66.7413 84.236 66.496C83.756 66.2507 83.26 66.128 82.748 66.128C82.236 66.128 81.74 66.2507 81.26 66.496C80.7907 66.7413 80.3693 67.1733 79.996 67.792C79.6333 68.4107 79.34 69.2533 79.116 70.32C78.892 71.3867 78.78 72.7413 78.78 74.384C78.78 76.0373 78.892 77.3973 79.116 78.464C79.34 79.5307 79.6333 80.3733 79.996 80.992C80.3693 81.6107 80.7907 82.0427 81.26 82.288C81.74 82.5333 82.236 82.656 82.748 82.656C83.26 82.656 83.756 82.5333 84.236 82.288C84.7267 82.0427 85.1587 81.6107 85.532 80.992C85.9053 80.3733 86.204 79.5307 86.428 78.464C86.6627 77.3973 86.78 76.0373 86.78 74.384ZM109.199 76.864H103.119V83.344H99.5345V76.864H93.4865V73.648H99.5345V67.184H103.119V73.648H109.199V76.864Z" fill="#1E212C"/>
</g>
<defs>
<clipPath id="clip0_2199_182">
<rect width="148" height="148" fill="white"/>
</clipPath>
</defs>
</svg>
