<svg width="148" height="148" viewBox="0 0 148 148" fill="none" xmlns="http://www.w3.org/2000/svg">
<g clip-path="url(#clip0_2199_194)">
<circle opacity="0.3" cx="74" cy="74" r="71" stroke="#F89828" stroke-width="6"/>
<path d="M74 142C111.555 142 142 111.555 142 74C142 36.4446 111.555 6 74 6V0C114.869 0 148 33.1309 148 74C148 114.869 114.869 148 74 148C33.1309 148 0 114.869 0 74C0 51.3485 10.1774 31.0741 26.209 17.5L30 22.1523C15.3167 34.6254 6 53.2247 6 74C6 111.555 36.4446 142 74 142Z" fill="#F89828"/>
<path d="M71.1095 82.752V86H58.0855V82.752H62.6935V70.048C62.6935 69.7707 62.6988 69.488 62.7095 69.2C62.7202 68.912 62.7362 68.6187 62.7575 68.32L59.7175 70.848C59.5042 71.008 59.2962 71.1093 59.0935 71.152C58.8908 71.1947 58.6988 71.2 58.5175 71.168C58.3362 71.1253 58.1762 71.0613 58.0375 70.976C57.8988 70.88 57.7922 70.784 57.7175 70.688L56.3255 68.816L63.4615 62.768H67.0935V82.752H71.1095ZM90.84 74.384C90.84 76.4107 90.6213 78.1707 90.184 79.664C89.7467 81.1573 89.144 82.3947 88.376 83.376C87.608 84.3467 86.696 85.072 85.64 85.552C84.5947 86.0213 83.464 86.256 82.248 86.256C81.032 86.256 79.9013 86.0213 78.856 85.552C77.8107 85.072 76.9093 84.3467 76.152 83.376C75.3947 82.3947 74.7973 81.1573 74.36 79.664C73.9333 78.1707 73.72 76.4107 73.72 74.384C73.72 72.3573 73.9333 70.6027 74.36 69.12C74.7973 67.6267 75.3947 66.3947 76.152 65.424C76.9093 64.4427 77.8107 63.7173 78.856 63.248C79.9013 62.768 81.032 62.528 82.248 62.528C83.464 62.528 84.5947 62.768 85.64 63.248C86.696 63.7173 87.608 64.4427 88.376 65.424C89.144 66.3947 89.7467 67.6267 90.184 69.12C90.6213 70.6027 90.84 72.3573 90.84 74.384ZM86.28 74.384C86.28 72.7413 86.1627 71.3867 85.928 70.32C85.704 69.2533 85.4053 68.4107 85.032 67.792C84.6587 67.1733 84.2267 66.7413 83.736 66.496C83.256 66.2507 82.76 66.128 82.248 66.128C81.736 66.128 81.24 66.2507 80.76 66.496C80.2907 66.7413 79.8693 67.1733 79.496 67.792C79.1333 68.4107 78.84 69.2533 78.616 70.32C78.392 71.3867 78.28 72.7413 78.28 74.384C78.28 76.0373 78.392 77.3973 78.616 78.464C78.84 79.5307 79.1333 80.3733 79.496 80.992C79.8693 81.6107 80.2907 82.0427 80.76 82.288C81.24 82.5333 81.736 82.656 82.248 82.656C82.76 82.656 83.256 82.5333 83.736 82.288C84.2267 82.0427 84.6587 81.6107 85.032 80.992C85.4053 80.3733 85.704 79.5307 85.928 78.464C86.1627 77.3973 86.28 76.0373 86.28 74.384Z" fill="#1E212C"/>
</g>
<defs>
<clipPath id="clip0_2199_194">
<rect width="148" height="148" fill="white"/>
</clipPath>
</defs>
</svg>
