<svg width="16" height="16" viewBox="0 0 16 16" fill="none" xmlns="http://www.w3.org/2000/svg">
<path fill-rule="evenodd" clip-rule="evenodd" d="M15.1673 11.9993V4.66602C15.1673 3.56145 14.2719 2.66602 13.1673 2.66602L2.83398 2.66603C1.72941 2.66603 0.833984 3.56146 0.833984 4.66603V11.9993C0.833984 13.1039 1.72941 13.9993 2.83399 13.9993L13.1673 13.9993C14.2719 13.9993 15.1673 13.1039 15.1673 11.9993ZM13.834 6.17232V11.9993C13.834 12.3675 13.5355 12.666 13.1673 12.666L2.83399 12.666C2.4658 12.666 2.16732 12.3675 2.16732 11.9993L2.16732 6.17223L6.8761 9.3742C7.55482 9.83573 8.44662 9.83573 9.12534 9.3742L13.834 6.17232ZM13.8264 4.56509C13.7778 4.24479 13.5012 3.99935 13.1673 3.99935L2.83398 3.99936C2.50013 3.99936 2.2236 4.24476 2.17492 4.56501L7.62584 8.27164C7.85208 8.42548 8.14935 8.42548 8.37559 8.27164L13.8264 4.56509Z" fill="white"/>
</svg>
